<svg width="140" height="140" viewBox="0 0 140 140" fill="none" xmlns="http://www.w3.org/2000/svg">
<path d="M125.972 111.577H116.698V111.647H125.972V111.577Z" fill="#EBEBEB"/>
<path d="M92.7418 112.339H90.3086V112.409H92.7418V112.339Z" fill="#EBEBEB"/>
<path d="M116.418 108.979H111.045V109.049H116.418V108.979Z" fill="#EBEBEB"/>
<path d="M26.7817 109.449H14.6885V109.519H26.7817V109.449Z" fill="#EBEBEB"/>
<path d="M31.0488 109.449H29.2764V109.519H31.0488V109.449Z" fill="#EBEBEB"/>
<path d="M63.0419 110.631H36.8115V110.701H63.0419V110.631Z" fill="#EBEBEB"/>
<path d="M66.3604 94.5839H12.298C11.874 94.5839 11.4673 94.4155 11.1675 94.1156C10.8677 93.8158 10.6992 93.4091 10.6992 92.9851V16.9847C10.7029 16.5631 10.873 16.16 11.1724 15.8632C11.4719 15.5664 11.8764 15.3999 12.298 15.3999H66.3604C66.7845 15.3999 67.1911 15.5683 67.4909 15.8682C67.7908 16.168 67.9592 16.5747 67.9592 16.9987V92.9851C67.9592 93.4091 67.7908 93.8158 67.4909 94.1156C67.1911 94.4155 66.7845 94.5839 66.3604 94.5839ZM12.298 15.4559C11.8928 15.4566 11.5044 15.6179 11.2178 15.9045C10.9313 16.191 10.77 16.5795 10.7692 16.9847V92.9851C10.77 93.3903 10.9313 93.7788 11.2178 94.0653C11.5044 94.3519 11.8928 94.5132 12.298 94.5139H66.3604C66.7657 94.5132 67.1541 94.3519 67.4406 94.0653C67.7272 93.7788 67.8885 93.3903 67.8892 92.9851V16.9847C67.8885 16.5795 67.7272 16.191 67.4406 15.9045C67.1541 15.6179 66.7657 15.4566 66.3604 15.4559H12.298Z" fill="#EBEBEB"/>
<path d="M126.927 94.5839H72.8586C72.4348 94.5832 72.0285 94.4145 71.7289 94.1148C71.4292 93.8151 71.2605 93.4089 71.2598 92.9851V16.9847C71.2642 16.5633 71.4345 16.1607 71.7338 15.864C72.033 15.5674 72.4372 15.4006 72.8586 15.3999H126.927C127.347 15.4014 127.75 15.5685 128.049 15.8652C128.347 16.1618 128.516 16.5641 128.52 16.9847V92.9851C128.52 93.4082 128.352 93.814 128.053 94.1136C127.755 94.4133 127.35 94.5824 126.927 94.5839ZM72.8586 15.4559C72.4533 15.4566 72.0649 15.6179 71.7784 15.9045C71.4918 16.191 71.3305 16.5795 71.3298 16.9847V92.9851C71.3305 93.3903 71.4918 93.7788 71.7784 94.0653C72.0649 94.3519 72.4533 94.5132 72.8586 94.5139H126.927C127.332 94.5132 127.72 94.3519 128.007 94.0653C128.293 93.7788 128.455 93.3903 128.455 92.9851V16.9847C128.455 16.5795 128.293 16.191 128.007 15.9045C127.72 15.6179 127.332 15.4566 126.927 15.4559H72.8586Z" fill="#EBEBEB"/>
<path d="M140 107.072H0V107.142H140V107.072Z" fill="#EBEBEB"/>
<path d="M44.8115 70.0503H18.1611V105.512H44.8115V70.0503Z" fill="#F5F5F5"/>
<path d="M49.8963 70.0503H44.8115V105.512H49.8963V70.0503Z" fill="#E6E6E6"/>
<path d="M43.0807 72.6794H20.0283V81.2922H43.0807V72.6794Z" fill="#FAFAFA"/>
<path d="M28.5596 72.6794L28.6604 73.8274C28.6765 74.0102 28.7604 74.1802 28.8957 74.3041C29.031 74.4279 29.2078 74.4966 29.3912 74.4966H33.7396C33.923 74.4966 34.0998 74.4279 34.235 74.3041C34.3703 74.1802 34.4543 74.0102 34.4704 73.8274L34.5712 72.6794H28.5596Z" fill="#EBEBEB"/>
<path d="M43.0807 82.2332H20.0283V90.846H43.0807V82.2332Z" fill="#FAFAFA"/>
<path d="M28.5596 82.2332L28.6604 83.3812C28.6765 83.5639 28.7604 83.7339 28.8957 83.8578C29.031 83.9817 29.2078 84.0504 29.3912 84.0504H33.7396C33.923 84.0504 34.0998 83.9817 34.235 83.8578C34.3703 83.7339 34.4543 83.5639 34.4704 83.3812L34.5712 82.2332H28.5596Z" fill="#EBEBEB"/>
<path d="M43.0807 91.7839H20.0283V100.397H43.0807V91.7839Z" fill="#FAFAFA"/>
<path d="M28.5596 91.7839L28.6604 92.9319C28.6765 93.1146 28.7604 93.2847 28.8957 93.4086C29.031 93.5324 29.2078 93.6011 29.3912 93.6011H33.7396C33.923 93.6011 34.0998 93.5324 34.235 93.4086C34.3703 93.2847 34.4543 93.1146 34.4704 92.9319L34.5712 91.7839H28.5596Z" fill="#EBEBEB"/>
<path d="M43.0807 107.279H20.3083L20.0283 105.507H43.0807V107.279Z" fill="#E6E6E6"/>
<path d="M47.8411 107.279H43.0811V105.507H48.1211L47.8411 107.279Z" fill="#E0E0E0"/>
<path d="M37.0245 69.9775H40.2501C40.5408 69.7325 40.7744 69.4268 40.9345 69.082C41.0946 68.7371 41.1773 68.3614 41.1769 67.9811C41.1769 67.0683 40.6617 61.6335 40.6617 61.6335H36.6129C36.6129 61.6335 36.0977 67.0683 36.0977 67.9811C36.0972 68.3614 36.1799 68.7371 36.34 69.082C36.5001 69.4268 36.7337 69.7325 37.0245 69.9775Z" fill="#EBEBEB"/>
<path d="M38.7095 65.503C38.7059 65.2938 38.6202 65.0944 38.4709 64.9478C38.3217 64.8011 38.1208 64.719 37.9115 64.719H33.1515C32.9425 64.7197 32.742 64.8021 32.5929 64.9485C32.4438 65.095 32.3579 65.294 32.3535 65.503V65.5618C32.1827 65.5058 32.0042 65.4765 31.8243 65.475C31.0431 65.475 30.5195 66.0854 30.5195 66.9898C30.5195 67.8942 31.4323 68.5046 32.2471 68.5046C32.3298 68.5042 32.4122 68.4967 32.4935 68.4822C32.6822 69.0641 33.0293 69.5819 33.4959 69.9774H37.5615C37.9283 69.668 38.2228 69.2821 38.4245 68.8468C38.6263 68.4114 38.7302 67.9372 38.7291 67.4574C38.7347 67.1466 38.7235 66.4102 38.7095 65.503ZM32.2527 67.9978C31.6927 67.9978 31.0319 67.5498 31.0319 66.9898C31.0319 66.7546 31.0907 65.9818 31.8299 65.9818C32.01 65.9856 32.1873 66.0266 32.3507 66.1022C32.3507 66.7266 32.3339 67.2222 32.3339 67.463C32.3356 67.6395 32.3515 67.8155 32.3815 67.9894C32.3388 67.9951 32.2958 67.9979 32.2527 67.9978Z" fill="#E0E0E0"/>
<path d="M21.4902 66.2116C21.5175 65.1963 21.9399 64.2318 22.6676 63.5233C23.3953 62.8149 24.3708 62.4185 25.3864 62.4185C26.4021 62.4185 27.3776 62.8149 28.1053 63.5233C28.833 64.2318 29.2554 65.1963 29.2826 66.2116V70.2408H21.4902V66.2116Z" fill="#F0F0F0"/>
<path d="M28.3482 66.9063C28.7343 65.2703 27.7211 63.6311 26.0851 63.2449C24.4491 62.8588 22.8099 63.872 22.4238 65.508C22.0376 67.144 23.0508 68.7832 24.6868 69.1694C26.3228 69.5555 27.962 68.5423 28.3482 66.9063Z" fill="#FAFAFA"/>
<path d="M25.3873 63.6468C26.1518 63.6472 26.8881 63.9355 27.4496 64.4544C28.011 64.9733 28.3564 65.6847 28.4169 66.4468C28.4169 66.3656 28.4309 66.2872 28.4309 66.206C28.4309 65.3987 28.1103 64.6246 27.5395 64.0538C26.9687 63.483 26.1946 63.1624 25.3873 63.1624C24.5801 63.1624 23.806 63.483 23.2352 64.0538C22.6644 64.6246 22.3438 65.3987 22.3438 66.206C22.3438 66.2872 22.3438 66.3656 22.3438 66.4468C22.4045 65.6822 22.7518 64.9689 23.3163 64.4497C23.8807 63.9304 24.6204 63.6436 25.3873 63.6468Z" fill="#E0E0E0"/>
<path d="M27.3082 66.2086H25.7094V64.6098C25.7094 64.5244 25.6755 64.4425 25.6151 64.3822C25.5547 64.3218 25.4728 64.2878 25.3874 64.2878C25.302 64.2878 25.2201 64.3218 25.1598 64.3822C25.0994 64.4425 25.0654 64.5244 25.0654 64.6098V66.5306C25.0651 66.573 25.0731 66.6151 25.0892 66.6543C25.1052 66.6935 25.1289 66.7292 25.1589 66.7592C25.1889 66.7891 25.2245 66.8128 25.2638 66.8289C25.303 66.8449 25.3451 66.853 25.3874 66.8526H27.3082C27.3936 66.8526 27.4755 66.8187 27.5359 66.7583C27.5963 66.6979 27.6302 66.616 27.6302 66.5306C27.6302 66.4452 27.5963 66.3633 27.5359 66.303C27.4755 66.2426 27.3936 66.2086 27.3082 66.2086Z" fill="#E0E0E0"/>
<path d="M27.3082 66.5334C27.3936 66.5334 27.4755 66.4995 27.5359 66.4391C27.5963 66.3787 27.6302 66.2968 27.6302 66.2114C27.6302 66.126 27.5963 66.0441 27.5359 65.9837C27.4755 65.9233 27.3936 65.8894 27.3082 65.8894H25.3874C25.302 65.8894 25.2201 65.9233 25.1597 65.9837C25.0994 66.0441 25.0654 66.126 25.0654 66.2114C25.0654 66.2968 25.0994 66.3787 25.1597 66.4391C25.2201 66.4995 25.302 66.5334 25.3874 66.5334H27.3082Z" fill="#F5F5F5"/>
<path d="M25.7094 64.2878C25.7094 64.2024 25.6755 64.1205 25.6151 64.0601C25.5547 63.9997 25.4728 63.9658 25.3874 63.9658C25.302 63.9658 25.2201 63.9997 25.1597 64.0601C25.0994 64.1205 25.0654 64.2024 25.0654 64.2878V66.2114C25.0654 66.2968 25.0994 66.3787 25.1597 66.4391C25.2201 66.4995 25.302 66.5334 25.3874 66.5334C25.4728 66.5334 25.5547 66.4995 25.6151 66.4391C25.6755 66.3787 25.7094 66.2968 25.7094 66.2114V64.2878Z" fill="#EBEBEB"/>
<path d="M100.52 90.6975L99.467 90.5127C99.467 90.5127 97.7423 96.1379 97.3895 98.0727C97.0367 100.007 96.6447 105.526 96.5495 106.859C96.5444 106.941 96.5704 107.022 96.6222 107.086C96.6741 107.15 96.7481 107.192 96.8295 107.203L97.3027 107.285C97.3821 107.299 97.4641 107.284 97.5328 107.241C97.6015 107.199 97.6522 107.133 97.675 107.055C98.0446 105.773 99.5595 100.483 99.8927 98.5151C100.226 96.5467 100.52 90.6975 100.52 90.6975Z" fill="#E6E6E6"/>
<path d="M114.489 90.6975L115.542 90.5127C115.542 90.5127 117.264 96.1379 117.617 98.0727C117.97 100.007 118.364 105.526 118.457 106.859C118.462 106.941 118.436 107.022 118.384 107.086C118.332 107.15 118.258 107.192 118.177 107.203L117.701 107.285C117.622 107.299 117.54 107.283 117.472 107.241C117.404 107.199 117.354 107.132 117.331 107.055C116.962 105.773 115.447 100.483 115.114 98.5151C114.78 96.5467 114.489 90.6975 114.489 90.6975Z" fill="#E6E6E6"/>
<path d="M102.511 90.328L102.14 90.7944L114.729 100.826L115.1 100.36L102.511 90.328Z" fill="#E6E6E6"/>
<path d="M112.244 90.3232L99.6553 100.355L100.027 100.821L112.616 90.7897L112.244 90.3232Z" fill="#E6E6E6"/>
<path d="M102.013 90.6975L100.96 90.5127C100.96 90.5127 99.2353 96.1379 98.8825 98.0727C98.5297 100.007 98.1377 105.526 98.0425 106.859C98.0381 106.941 98.0643 107.022 98.116 107.085C98.1678 107.149 98.2414 107.191 98.3225 107.203L98.7957 107.285C98.8751 107.299 98.9571 107.284 99.0258 107.241C99.0945 107.199 99.1452 107.133 99.1681 107.055C99.5377 105.773 101.052 100.483 101.386 98.5151C101.719 96.5467 102.013 90.6975 102.013 90.6975Z" fill="#F0F0F0"/>
<path d="M112.745 90.6975L113.798 90.5127C113.798 90.5127 115.523 96.1379 115.876 98.0727C116.228 100.007 116.62 105.526 116.716 106.859C116.721 106.941 116.695 107.022 116.643 107.086C116.591 107.15 116.517 107.192 116.436 107.203L115.962 107.285C115.883 107.299 115.801 107.284 115.732 107.241C115.663 107.199 115.613 107.133 115.59 107.055C115.22 105.773 113.706 100.483 113.372 98.5151C113.039 96.5467 112.745 90.6975 112.745 90.6975Z" fill="#F0F0F0"/>
<path d="M117.6 88.7936H97.1598C97.0809 88.793 97.0031 88.7747 96.9322 88.7402C96.8613 88.7056 96.799 88.6556 96.7499 88.5939C96.7007 88.5322 96.666 88.4602 96.6483 88.3834C96.6306 88.3065 96.6303 88.2266 96.6474 88.1496L100.24 72.3996C100.565 70.978 101.363 69.7089 102.504 68.8C103.644 67.891 105.059 67.396 106.517 67.396H108.239C109.698 67.3954 111.114 67.8901 112.255 68.7991C113.396 69.7081 114.194 70.9776 114.52 72.3996L118.121 88.1496C118.138 88.2274 118.138 88.3081 118.12 88.3859C118.102 88.4636 118.067 88.5362 118.017 88.5983C117.967 88.6603 117.903 88.7101 117.831 88.7439C117.759 88.7778 117.68 88.7948 117.6 88.7936Z" fill="#F5F5F5"/>
<path d="M119.048 88.3707C119.048 89.9891 113.823 91.3023 107.377 91.3023C100.932 91.3023 95.707 89.9891 95.707 88.3707C95.707 86.7523 100.932 87.6399 107.377 87.6399C113.823 87.6399 119.048 86.7523 119.048 88.3707Z" fill="#EBEBEB"/>
<path d="M68.6505 118.639C98.6336 118.639 122.94 117.22 122.94 115.469C122.94 113.719 98.6336 112.3 68.6505 112.3C38.6674 112.3 14.3613 113.719 14.3613 115.469C14.3613 117.22 38.6674 118.639 68.6505 118.639Z" fill="#F5F5F5"/>
<path d="M109.732 48.0285L109.259 53.4185C109.215 53.8631 109.008 54.2758 108.68 54.5783C108.351 54.8808 107.922 55.052 107.476 55.0593H103.48L101.08 57.6437L101.36 54.8941C101.094 54.7573 100.876 54.543 100.734 54.2796C100.592 54.0162 100.533 53.716 100.565 53.4185L101.038 48.0285C101.083 47.5842 101.29 47.1719 101.619 46.8695C101.947 46.5671 102.375 46.3957 102.822 46.3877H108.212C108.424 46.3809 108.635 46.4196 108.831 46.5013C109.026 46.5831 109.202 46.7059 109.346 46.8614C109.49 47.017 109.6 47.2017 109.666 47.403C109.733 47.6044 109.755 47.8177 109.732 48.0285Z" fill="#7F78D8"/>
<path opacity="0.2" d="M109.732 48.0285L109.259 53.4185C109.215 53.8631 109.008 54.2758 108.68 54.5783C108.351 54.8808 107.922 55.052 107.476 55.0593H103.48L101.08 57.6437L101.36 54.8941C101.094 54.7573 100.876 54.543 100.734 54.2796C100.592 54.0162 100.533 53.716 100.565 53.4185L101.038 48.0285C101.083 47.5842 101.29 47.1719 101.619 46.8695C101.947 46.5671 102.375 46.3957 102.822 46.3877H108.212C108.424 46.3809 108.635 46.4196 108.831 46.5013C109.026 46.5831 109.202 46.7059 109.346 46.8614C109.49 47.017 109.6 47.2017 109.666 47.403C109.733 47.6044 109.755 47.8177 109.732 48.0285Z" fill="white"/>
<path d="M103.952 51.8393C103.775 51.9427 103.637 52.1023 103.561 52.2929C103.485 52.4834 103.474 52.694 103.531 52.8911C103.588 53.0883 103.71 53.2607 103.876 53.3811C104.042 53.5015 104.244 53.563 104.449 53.5557C104.654 53.5484 104.851 53.4729 105.008 53.3411C105.165 53.2092 105.274 53.0287 105.317 52.828C105.36 52.6273 105.335 52.418 105.245 52.2333C105.156 52.0486 105.007 51.8991 104.823 51.8085L106.584 47.9921C106.593 47.9727 106.596 47.9511 106.592 47.93C106.589 47.9089 106.579 47.8894 106.564 47.874C106.549 47.8586 106.53 47.848 106.509 47.8436C106.489 47.8392 106.467 47.8412 106.447 47.8493L105.918 48.0649C105.74 48.1365 105.597 48.2739 105.517 48.4485L103.952 51.8393ZM103.893 52.3993C103.942 52.296 104.019 52.2093 104.117 52.1501C104.214 52.091 104.327 52.0621 104.441 52.067C104.555 52.0719 104.665 52.1105 104.757 52.1779C104.849 52.2453 104.919 52.3384 104.958 52.4455C104.997 52.5526 105.004 52.6689 104.977 52.7797C104.95 52.8905 104.89 52.9908 104.806 53.0679C104.722 53.1451 104.618 53.1956 104.505 53.2132C104.392 53.2307 104.277 53.2145 104.173 53.1665C104.104 53.1346 104.041 53.0891 103.989 53.0326C103.937 52.9762 103.896 52.9099 103.87 52.8376C103.844 52.7654 103.833 52.6886 103.837 52.6119C103.841 52.5352 103.86 52.4601 103.893 52.3909V52.3993Z" fill="white"/>
<path d="M108.117 49.1707L106.12 49.9099L105.658 50.9095L107.585 50.2011C107.764 50.1348 107.911 50.0026 107.996 49.8315L108.254 49.3191C108.265 49.2995 108.269 49.277 108.266 49.2548C108.264 49.2326 108.254 49.2117 108.239 49.1953C108.224 49.1789 108.204 49.1676 108.182 49.1632C108.16 49.1588 108.137 49.1614 108.117 49.1707Z" fill="white"/>
<path d="M103.431 51.7273L103.619 51.6601L104.081 50.6605L103.521 50.8621C103.446 50.6712 103.309 50.511 103.132 50.4069C102.955 50.3028 102.748 50.2607 102.545 50.2873C102.341 50.314 102.152 50.4079 102.008 50.554C101.864 50.7002 101.773 50.8903 101.749 51.0941C101.726 51.298 101.771 51.504 101.877 51.6793C101.984 51.8547 102.146 51.9894 102.338 52.0622C102.53 52.1349 102.741 52.1414 102.937 52.0808C103.133 52.0201 103.303 51.8957 103.42 51.7273H103.431ZM102.135 51.3997C102.095 51.292 102.089 51.175 102.116 51.0635C102.142 50.9519 102.202 50.8509 102.286 50.7731C102.371 50.6954 102.476 50.6444 102.589 50.6267C102.703 50.609 102.819 50.6254 102.923 50.6737C103.027 50.722 103.114 50.8001 103.174 50.8981C103.234 50.9961 103.263 51.1096 103.258 51.2242C103.253 51.3389 103.214 51.4494 103.146 51.542C103.079 51.6345 102.985 51.7049 102.877 51.7441C102.733 51.7965 102.574 51.7897 102.435 51.7251C102.296 51.6606 102.188 51.5436 102.135 51.3997Z" fill="white"/>
<path d="M113.529 24.7324L112.924 31.6596C112.865 32.2305 112.599 32.7602 112.177 33.1486C111.754 33.537 111.204 33.7574 110.631 33.768H105.453L102.889 37.24L103.169 33.6896C102.733 33.5705 102.355 33.3001 102.101 32.9271C101.847 32.554 101.734 32.1027 101.783 31.654L102.39 24.7268C102.448 24.1557 102.714 23.6257 103.136 23.2372C103.559 22.8486 104.109 22.6285 104.683 22.6184H111.611C111.881 22.6139 112.149 22.6671 112.397 22.7744C112.645 22.8818 112.867 23.0408 113.048 23.241C113.23 23.4411 113.367 23.6776 113.45 23.9348C113.532 24.1921 113.559 24.464 113.529 24.7324Z" fill="#7F78D8"/>
<g opacity="0.2">
<path d="M113.529 24.7324L112.924 31.6596C112.865 32.2305 112.599 32.7602 112.177 33.1486C111.754 33.537 111.204 33.7574 110.631 33.768H105.453L102.889 37.24L103.169 33.6896C102.733 33.5705 102.355 33.3001 102.101 32.9271C101.847 32.554 101.734 32.1027 101.783 31.654L102.39 24.7268C102.448 24.1557 102.714 23.6257 103.136 23.2372C103.559 22.8486 104.109 22.6285 104.683 22.6184H111.611C111.881 22.6139 112.149 22.6671 112.397 22.7744C112.645 22.8818 112.867 23.0408 113.048 23.241C113.23 23.4411 113.367 23.6776 113.45 23.9348C113.532 24.1921 113.559 24.464 113.529 24.7324Z" fill="white"/>
</g>
<path d="M109.241 30.4865C108.78 30.8559 108.218 31.0783 107.629 31.1249L107.491 32.1133H106.609L106.744 31.1529C106.332 31.1319 105.925 31.0546 105.534 30.9233C105.211 30.8233 104.911 30.6616 104.649 30.4473L105.279 29.3721C105.498 29.5476 105.743 29.6875 106.005 29.7865C106.292 29.8994 106.593 29.9701 106.901 29.9965L107.105 28.5265C106.759 28.4447 106.421 28.3323 106.094 28.1905C105.833 28.0739 105.609 27.8868 105.447 27.6501C105.279 27.3644 105.223 27.0258 105.291 26.7009C105.362 26.2089 105.614 25.7614 105.999 25.4465C106.463 25.072 107.031 24.8492 107.626 24.8081L107.763 23.8281H108.639L108.505 24.7885C109.114 24.8132 109.705 24.9986 110.219 25.3261L109.625 26.4097C109.242 26.1662 108.81 26.0103 108.359 25.9533L108.144 27.4401C108.486 27.5155 108.821 27.6233 109.143 27.7621C109.404 27.877 109.626 28.0635 109.785 28.2997C109.954 28.5812 110.011 28.9161 109.944 29.2377C109.878 29.7283 109.626 30.175 109.241 30.4865ZM106.842 26.9921C106.972 27.1043 107.126 27.1857 107.293 27.2301L107.469 25.9785C107.273 26.0141 107.091 26.101 106.94 26.2305C106.823 26.3347 106.747 26.4764 106.724 26.6309C106.712 26.6962 106.717 26.7634 106.737 26.8265C106.758 26.8896 106.794 26.9465 106.842 26.9921ZM108.301 29.7333C108.415 29.6377 108.49 29.503 108.511 29.3553C108.524 29.2906 108.52 29.2235 108.501 29.1604C108.481 29.0973 108.446 29.0402 108.399 28.9941C108.272 28.8814 108.123 28.7966 107.962 28.7449L107.799 29.9601C107.983 29.9274 108.155 29.8494 108.301 29.7333Z" fill="white"/>
<path d="M54.7203 34.0956L54.1603 40.3984C54.1076 40.918 53.8661 41.4002 53.4817 41.7537C53.0972 42.1072 52.5965 42.3074 52.0743 42.3164H51.7131L51.4975 44.8168L49.6691 42.3164H45.7827C45.5371 42.3207 45.2935 42.2726 45.0679 42.1754C44.8424 42.0781 44.6401 41.934 44.4746 41.7526C44.309 41.5712 44.184 41.3566 44.1078 41.1231C44.0316 40.8896 44.006 40.6426 44.0327 40.3984L44.5927 34.0956C44.6454 33.576 44.8868 33.0938 45.2713 32.7403C45.6557 32.3868 46.1565 32.1866 46.6787 32.1776H52.9787C53.2236 32.1746 53.4663 32.2236 53.6908 32.3213C53.9153 32.4191 54.1166 32.5633 54.2812 32.7446C54.4458 32.9259 54.5701 33.1401 54.6458 33.373C54.7215 33.6059 54.7469 33.8522 54.7203 34.0956Z" fill="#7F78D8"/>
<g opacity="0.2">
<path d="M54.7203 34.0956L54.1603 40.3984C54.1076 40.918 53.8661 41.4002 53.4817 41.7537C53.0972 42.1072 52.5965 42.3074 52.0743 42.3164H51.7131L51.4975 44.8168L49.6691 42.3164H45.7827C45.5371 42.3207 45.2935 42.2726 45.0679 42.1754C44.8424 42.0781 44.6401 41.934 44.4746 41.7526C44.309 41.5712 44.184 41.3566 44.1078 41.1231C44.0316 40.8896 44.006 40.6426 44.0327 40.3984L44.5927 34.0956C44.6454 33.576 44.8868 33.0938 45.2713 32.7403C45.6557 32.3868 46.1565 32.1866 46.6787 32.1776H52.9787C53.2236 32.1746 53.4663 32.2236 53.6908 32.3213C53.9153 32.4191 54.1166 32.5633 54.2812 32.7446C54.4458 32.9259 54.5701 33.1401 54.6458 33.373C54.7215 33.6059 54.7469 33.8522 54.7203 34.0956Z" fill="white"/>
</g>
<path d="M46.9163 37.0804C46.7003 36.8117 46.5996 36.4684 46.6363 36.1256C46.6393 35.7709 46.7751 35.4301 47.0171 35.1708C47.1293 35.0537 47.2648 34.9614 47.4147 34.8996C47.5647 34.8379 47.7258 34.8082 47.8879 34.8124C48.046 34.8044 48.2038 34.8325 48.3493 34.8946C48.4949 34.9567 48.6243 35.0511 48.7279 35.1708C48.9429 35.44 49.0435 35.7829 49.0079 36.1256C49.0034 36.4794 48.8688 36.8193 48.6299 37.0804C48.5185 37.1976 48.3836 37.2901 48.2341 37.3519C48.0845 37.4136 47.9237 37.4432 47.7619 37.4388C47.603 37.447 47.4444 37.419 47.2979 37.3569C47.1514 37.2948 47.0209 37.2003 46.9163 37.0804ZM48.1595 36.68C48.2657 36.5125 48.3221 36.3183 48.3219 36.12C48.3448 35.9271 48.3087 35.7319 48.2183 35.56C48.1819 35.4996 48.1299 35.4501 48.0679 35.4167C48.0059 35.3832 47.936 35.3669 47.8655 35.3696C47.7922 35.3695 47.72 35.3873 47.6551 35.4214C47.5902 35.4556 47.5346 35.5051 47.4931 35.5656C47.3857 35.7326 47.3283 35.9269 47.3279 36.1256C47.3052 36.3187 47.3423 36.5142 47.4343 36.6856C47.4703 36.7461 47.5216 36.7961 47.583 36.8306C47.6445 36.865 47.7139 36.8826 47.7843 36.8816C47.8586 36.8815 47.9318 36.863 47.9972 36.8279C48.0627 36.7927 48.1185 36.7419 48.1595 36.68ZM50.7271 34.8572H51.5195L48.0195 39.6172H47.2103L50.7271 34.8572ZM50.2679 39.5108C50.0924 39.4018 49.9546 39.2415 49.8731 39.0516C49.782 38.832 49.7437 38.5942 49.7611 38.3572C49.7698 38.1156 49.8329 37.8792 49.9459 37.6656C50.0478 37.4743 50.201 37.3153 50.3883 37.2064C50.5768 37.0992 50.7904 37.0441 51.0071 37.0468C51.1649 37.0393 51.3222 37.0673 51.4676 37.1289C51.613 37.1904 51.7427 37.2839 51.8471 37.4024C52.0632 37.671 52.1639 38.0144 52.1271 38.3572C52.1235 38.7126 51.9878 39.0539 51.7463 39.3148C51.6338 39.4312 51.4982 39.5229 51.3483 39.5841C51.1984 39.6453 51.0374 39.6747 50.8755 39.6704C50.6611 39.6807 50.4483 39.6292 50.2623 39.522L50.2679 39.5108ZM51.2675 38.92C51.3741 38.7528 51.4295 38.5582 51.4271 38.36C51.4514 38.1674 51.4162 37.972 51.3263 37.8C51.2896 37.7391 51.2372 37.6891 51.1747 37.6551C51.1122 37.6212 51.0418 37.6045 50.9707 37.6068C50.8984 37.6065 50.827 37.6237 50.7627 37.6568C50.6983 37.69 50.6429 37.7381 50.6011 37.7972C50.4917 37.9633 50.4342 38.1582 50.4359 38.3572C50.4121 38.5504 50.4493 38.7462 50.5423 38.9172C50.579 38.9767 50.6306 39.0256 50.692 39.059C50.7534 39.0924 50.8224 39.1091 50.8923 39.1076C50.9655 39.1095 51.038 39.0934 51.1034 39.0607C51.1689 39.028 51.2252 38.9797 51.2675 38.92Z" fill="white"/>
<path d="M94.413 24.2761H87.133L82.751 108.08H90.031C91.6744 108.063 93.2502 107.424 94.4418 106.292C95.6334 105.16 96.3524 103.619 96.4542 101.979L100.206 30.3773C100.257 29.589 100.144 28.7987 99.8748 28.056C99.6056 27.3134 99.1859 26.6344 98.642 26.0615C98.0981 25.4887 97.4417 25.0344 96.7139 24.7272C95.9862 24.4199 95.2028 24.2663 94.413 24.2761Z" fill="#7F78D8"/>
<path d="M88.3399 108.08H58.3799C57.5908 108.089 56.8085 107.934 56.0819 107.627C55.3553 107.319 54.7001 106.864 54.1573 106.292C53.6145 105.719 53.1958 105.04 52.9275 104.298C52.6592 103.556 52.547 102.766 52.5979 101.979L56.3499 30.3774C56.4524 28.7368 57.1719 27.1958 58.364 26.064C59.556 24.9322 61.1322 24.2935 62.7759 24.2762H92.7359C93.5251 24.268 94.3075 24.4228 95.0341 24.7309C95.7607 25.039 96.4158 25.4938 96.9586 26.0667C97.5013 26.6397 97.92 27.3186 98.1883 28.0608C98.4566 28.803 98.5688 29.5926 98.5179 30.3802L94.7659 101.982C94.6634 103.622 93.9437 105.163 92.7516 106.294C91.5595 107.425 89.9833 108.064 88.3399 108.08Z" fill="#263238"/>
<path d="M92.6073 26.6559H89.4097C89.194 26.6605 88.988 26.7459 88.8324 26.8953C88.6768 27.0446 88.583 27.2471 88.5697 27.4624L88.5081 28.6692C88.4714 29.2561 88.214 29.8075 87.7876 30.2126C87.3612 30.6177 86.7974 30.8465 86.2093 30.8532H68.6197C68.3372 30.8565 68.0571 30.8013 67.7969 30.6912C67.5367 30.5811 67.3021 30.4184 67.1078 30.2133C66.9135 30.0083 66.7637 29.7652 66.6678 29.4995C66.5719 29.2338 66.532 28.9511 66.5505 28.6692L66.6121 27.4624C66.6186 27.3583 66.6037 27.254 66.5681 27.156C66.5326 27.058 66.4772 26.9684 66.4055 26.8927C66.3338 26.817 66.2472 26.757 66.1513 26.7162C66.0553 26.6755 65.952 26.655 65.8477 26.6559H62.6501C61.6471 26.6668 60.6854 27.0568 59.9582 27.7476C59.2311 28.4384 58.7923 29.3789 58.7301 30.38L54.9781 101.982C54.9467 102.463 55.0154 102.946 55.18 103.4C55.3445 103.854 55.6012 104.268 55.934 104.618C56.2668 104.968 56.6684 105.244 57.1135 105.431C57.5585 105.618 58.0375 105.71 58.5201 105.703H88.4801C89.4828 105.693 90.4445 105.303 91.1717 104.613C91.899 103.923 92.3379 102.982 92.4001 101.982L96.1521 30.38C96.1835 29.8979 96.1147 29.4147 95.95 28.9606C95.7854 28.5065 95.5284 28.0914 95.1954 27.7415C94.8623 27.3917 94.4604 27.1146 94.015 26.9277C93.5696 26.7409 93.0903 26.6484 92.6073 26.6559Z" fill="#7F78D8"/>
<path opacity="0.7" d="M92.6073 26.6559H89.4097C89.194 26.6605 88.988 26.7459 88.8324 26.8953C88.6768 27.0446 88.583 27.2471 88.5697 27.4624L88.5081 28.6692C88.4714 29.2561 88.214 29.8075 87.7876 30.2126C87.3612 30.6177 86.7974 30.8465 86.2093 30.8532H68.6197C68.3372 30.8565 68.0571 30.8013 67.7969 30.6912C67.5367 30.5811 67.3021 30.4184 67.1078 30.2133C66.9135 30.0083 66.7637 29.7652 66.6678 29.4995C66.5719 29.2338 66.532 28.9511 66.5505 28.6692L66.6121 27.4624C66.6186 27.3583 66.6037 27.254 66.5681 27.156C66.5326 27.058 66.4772 26.9684 66.4055 26.8927C66.3338 26.817 66.2472 26.757 66.1513 26.7162C66.0553 26.6755 65.952 26.655 65.8477 26.6559H62.6501C61.6471 26.6668 60.6854 27.0568 59.9582 27.7476C59.2311 28.4384 58.7923 29.3789 58.7301 30.38L54.9781 101.982C54.9467 102.463 55.0154 102.946 55.18 103.4C55.3445 103.854 55.6012 104.268 55.934 104.618C56.2668 104.968 56.6684 105.244 57.1135 105.431C57.5585 105.618 58.0375 105.71 58.5201 105.703H88.4801C89.4828 105.693 90.4445 105.303 91.1717 104.613C91.899 103.923 92.3379 102.982 92.4001 101.982L96.1521 30.38C96.1835 29.8979 96.1147 29.4147 95.95 28.9606C95.7854 28.5065 95.5284 28.0914 95.1954 27.7415C94.8623 27.3917 94.4604 27.1146 94.015 26.9277C93.5696 26.7409 93.0903 26.6484 92.6073 26.6559Z" fill="white"/>
<path d="M63.1171 38.4049C62.7429 38.4091 62.372 38.336 62.0274 38.1902C61.6829 38.0443 61.3722 37.8289 61.1148 37.5573C60.8574 37.2857 60.6589 36.9639 60.5318 36.612C60.4046 36.2602 60.3515 35.8858 60.3759 35.5124C60.4233 34.7348 60.7637 34.004 61.3284 33.4673C61.8932 32.9305 62.6404 32.6278 63.4195 32.62H91.1871C91.5612 32.6158 91.9322 32.6889 92.2767 32.8347C92.6213 32.9806 92.932 33.196 93.1893 33.4676C93.4467 33.7392 93.6452 34.061 93.7724 34.4129C93.8995 34.7647 93.9526 35.1391 93.9283 35.5124C93.8808 36.2901 93.5405 37.0209 92.9757 37.5576C92.4109 38.0944 91.6637 38.3971 90.8847 38.4049H63.1171Z" fill="white"/>
<path opacity="0.5" d="M77.6947 34.0145C77.428 33.7722 77.0795 33.6397 76.7192 33.6436C76.3589 33.6475 76.0134 33.7875 75.7519 34.0355C75.4905 34.2835 75.3325 34.6211 75.3095 34.9807C75.2866 35.3403 75.4005 35.6953 75.6283 35.9745C75.8454 36.1915 76.1291 36.3291 76.4339 36.3651C76.7386 36.4012 77.0467 36.3336 77.3083 36.1733C77.3193 36.2438 77.3515 36.3092 77.4007 36.3609L78.2939 37.3017C78.3691 37.3584 78.4621 37.3863 78.5561 37.3805C78.6501 37.3746 78.7389 37.3354 78.8065 37.2698C78.8741 37.2042 78.916 37.1167 78.9247 37.0229C78.9334 36.9292 78.9083 36.8354 78.8539 36.7585L77.9635 35.8177C77.914 35.7665 77.8509 35.7305 77.7815 35.7141C77.961 35.4626 78.05 35.1577 78.0343 34.8492C78.0185 34.5406 77.8989 34.2464 77.6947 34.0145ZM77.2803 35.6553C77.1448 35.7703 76.9786 35.8431 76.8021 35.8647C76.6257 35.8863 76.4468 35.8558 76.2875 35.7769C76.1283 35.6979 75.9956 35.5741 75.9059 35.4206C75.8162 35.2672 75.7734 35.0908 75.7828 34.9133C75.7922 34.7358 75.8534 34.565 75.9588 34.4218C76.0642 34.2787 76.2092 34.1696 76.3759 34.1079C76.5426 34.0463 76.7238 34.0348 76.8969 34.0749C77.0701 34.1151 77.2277 34.205 77.3503 34.3337C77.4333 34.4247 77.4973 34.5312 77.5388 34.6472C77.5802 34.7631 77.5982 34.8862 77.5917 35.0091C77.5851 35.1321 77.5543 35.2525 77.5008 35.3634C77.4474 35.4744 77.3724 35.5736 77.2803 35.6553Z" fill="#263238"/>
<path opacity="0.5" d="M59.9203 44.1477C59.9677 43.37 60.3081 42.6392 60.8729 42.1025C61.4376 41.5658 62.1848 41.2631 62.9639 41.2553H90.7315C91.1056 41.251 91.4766 41.3241 91.8212 41.47C92.1657 41.6158 92.4764 41.8313 92.7338 42.1028C92.9912 42.3744 93.1897 42.6962 93.3168 43.0481C93.444 43.4 93.497 43.7743 93.4727 44.1477L91.1403 88.6677C91.0929 89.4449 90.7529 90.1753 90.1888 90.712C89.6246 91.2486 88.8781 91.5516 88.0995 91.5601H60.3319C59.9578 91.5644 59.5868 91.4913 59.2423 91.3454C58.8977 91.1996 58.587 90.9841 58.3296 90.7126C58.0723 90.441 57.8738 90.1192 57.7466 89.7673C57.6195 89.4154 57.5664 89.0411 57.5907 88.6677L59.9203 44.1477Z" fill="white"/>
<path opacity="0.6" d="M71.705 28.5599C71.6145 28.5609 71.5247 28.5432 71.4413 28.5078C71.358 28.4725 71.2828 28.4204 71.2205 28.3547C71.1582 28.289 71.1102 28.2111 71.0793 28.126C71.0485 28.0409 71.0356 27.9503 71.0414 27.8599C71.0527 27.6717 71.135 27.4948 71.2717 27.3649C71.4084 27.235 71.5892 27.1617 71.7778 27.1599H78.4978C78.5883 27.159 78.6781 27.1767 78.7614 27.2121C78.8448 27.2474 78.92 27.2995 78.9823 27.3652C79.0445 27.4309 79.0926 27.5088 79.1234 27.5939C79.1542 27.679 79.1672 27.7696 79.1614 27.8599C79.1494 28.0479 79.0669 28.2245 78.9304 28.3543C78.7938 28.484 78.6133 28.5575 78.425 28.5599H71.705Z" fill="black"/>
<path opacity="0.3" d="M83.6279 27.86C83.6087 28.2353 83.447 28.589 83.176 28.8492C82.9049 29.1093 82.5448 29.2563 82.1691 29.26C81.9885 29.2621 81.8094 29.2266 81.6433 29.1558C81.4771 29.0851 81.3274 28.9806 81.2037 28.849C81.08 28.7174 80.985 28.5616 80.9246 28.3913C80.8643 28.2211 80.8399 28.0402 80.8531 27.86C80.873 27.4846 81.0352 27.1308 81.3068 26.8707C81.5783 26.6106 81.9387 26.4638 82.3147 26.46C82.4952 26.458 82.6741 26.4935 82.8402 26.5642C83.0062 26.635 83.1557 26.7396 83.2792 26.8712C83.4027 27.0029 83.4975 27.1588 83.5575 27.329C83.6175 27.4992 83.6415 27.6801 83.6279 27.86Z" fill="black"/>
<path opacity="0.6" d="M82.9414 27.8599C82.9294 28.0479 82.8469 28.2245 82.7104 28.3543C82.5738 28.484 82.3933 28.5575 82.205 28.5599C82.1145 28.5609 82.0247 28.5432 81.9413 28.5078C81.858 28.4725 81.7828 28.4204 81.7205 28.3547C81.6582 28.289 81.6102 28.2111 81.5793 28.126C81.5485 28.0409 81.5356 27.9503 81.5414 27.8599C81.5527 27.6717 81.635 27.4948 81.7717 27.3649C81.9084 27.235 82.0892 27.1617 82.2778 27.1599C82.3683 27.159 82.4581 27.1767 82.5414 27.2121C82.6248 27.2474 82.7 27.2995 82.7623 27.3652C82.8245 27.4309 82.8726 27.5088 82.9034 27.5939C82.9342 27.679 82.9472 27.7696 82.9414 27.8599Z" fill="black"/>
<path d="M66.391 50.9321C65.9716 51.2882 65.45 51.5019 64.9014 51.5425L64.851 52.4889H64.011L64.0586 51.5677C63.6577 51.5478 63.2612 51.4743 62.8798 51.3493C62.5592 51.2511 62.2586 51.0965 61.9922 50.8929L62.5102 49.8653C62.7338 50.0311 62.9798 50.164 63.241 50.2601C63.5228 50.3663 63.8175 50.4341 64.1174 50.4617L64.1902 49.0617C63.8495 48.9838 63.516 48.877 63.1934 48.7425C62.9306 48.6296 62.7019 48.4501 62.5298 48.2217C62.3468 47.9578 62.2652 47.6366 62.3002 47.3173C62.3092 47.0896 62.3633 46.8659 62.4595 46.6592C62.5556 46.4525 62.6918 46.267 62.8602 46.1133C63.2831 45.7523 63.8117 45.5381 64.3666 45.5029L64.4142 44.5649H65.2542L65.2038 45.4861C65.7978 45.5138 66.3754 45.69 66.8838 45.9985L66.4078 47.0373C66.0207 46.8031 65.5884 46.6533 65.1394 46.5977L65.0666 48.0341C65.403 48.1061 65.7321 48.2092 66.0494 48.3421C66.3104 48.4527 66.5381 48.6293 66.7102 48.8545C66.8923 49.1168 66.9739 49.4359 66.9398 49.7533C66.9312 49.9764 66.8783 50.1956 66.7841 50.398C66.6898 50.6004 66.5562 50.782 66.391 50.9321ZM63.801 47.5721C63.9339 47.6782 64.0874 47.7554 64.2518 47.7989L64.3162 46.6005C64.1348 46.6347 63.9663 46.718 63.829 46.8413C63.7268 46.9438 63.666 47.0804 63.6582 47.2249C63.6471 47.2945 63.6545 47.3657 63.6796 47.4316C63.7046 47.4974 63.7465 47.5555 63.801 47.6001V47.5721ZM65.425 50.1957C65.4764 50.1496 65.518 50.0936 65.5474 50.0311C65.5767 49.9686 65.5932 49.9008 65.5958 49.8317C65.6021 49.7675 65.593 49.7028 65.5691 49.6428C65.5452 49.5829 65.5073 49.5296 65.4586 49.4873C65.3289 49.3808 65.1796 49.3009 65.019 49.2521L64.9602 50.4281C65.1321 50.3989 65.2928 50.3234 65.425 50.2097V50.1957Z" fill="#263238"/>
<path d="M71.6411 46.2224C72.0835 46.7264 72.2767 47.4516 72.2291 48.3952C72.212 48.9981 72.0517 49.5884 71.7615 50.1172C71.5008 50.5805 71.1119 50.9587 70.6415 51.2064C70.1478 51.4586 69.5997 51.5855 69.0455 51.576C68.7426 51.5785 68.4406 51.5428 68.1467 51.4696C67.8925 51.4124 67.6501 51.312 67.4299 51.1728L67.9899 50.1676C68.3134 50.3767 68.6942 50.4795 69.0791 50.4616C69.3004 50.4714 69.5214 50.4374 69.7295 50.3614C69.9375 50.2855 70.1285 50.1692 70.2915 50.0192C70.6229 49.6748 70.8154 49.2201 70.8319 48.7424C70.423 49.1098 69.8857 49.301 69.3367 49.2744C68.9845 49.2788 68.6363 49.2001 68.3203 49.0448C68.022 48.901 67.7743 48.6702 67.6098 48.3827C67.4454 48.0953 67.3719 47.7648 67.3991 47.4348C67.4166 47.0609 67.5421 46.7001 67.7603 46.396C67.9745 46.0969 68.2644 45.8601 68.6003 45.71C68.9596 45.5461 69.3507 45.4639 69.7455 45.4692C70.0974 45.4474 70.4498 45.5036 70.7775 45.6338C71.1052 45.764 71.4001 45.965 71.6411 46.2224ZM70.4399 48.0032C70.5347 47.9258 70.612 47.829 70.6665 47.7195C70.7211 47.6099 70.7517 47.4899 70.7563 47.3676C70.7666 47.2508 70.7503 47.1331 70.7086 47.0235C70.6669 46.9139 70.6009 46.8152 70.5155 46.7348C70.3095 46.5594 70.0434 46.4711 69.7735 46.4884C69.5101 46.478 69.2518 46.5624 69.0455 46.7264C68.9509 46.8045 68.8745 46.9024 68.8218 47.0131C68.7691 47.1239 68.7412 47.2449 68.7403 47.3676C68.7276 47.486 68.7426 47.6057 68.7838 47.7175C68.8251 47.8292 68.8917 47.9298 68.9783 48.0116C69.1788 48.1805 69.4361 48.2666 69.6979 48.2524C69.9671 48.2613 70.2306 48.1728 70.4399 48.0032Z" fill="#263238"/>
<path d="M77.0166 46.2224C77.4553 46.7264 77.6503 47.4507 77.6018 48.3952C77.5856 48.9979 77.4263 49.5882 77.137 50.1172C76.8761 50.5803 76.4872 50.9585 76.017 51.2064C75.5237 51.4594 74.9754 51.5864 74.421 51.576C74.1181 51.5784 73.8162 51.5426 73.5222 51.4696C73.2682 51.4119 73.0258 51.3116 72.8054 51.1728L73.3654 50.1676C73.6899 50.377 74.0717 50.4797 74.4574 50.4616C74.6787 50.4714 74.8997 50.4374 75.1078 50.3615C75.3159 50.2855 75.5069 50.1692 75.6698 50.0192C76.0002 49.6744 76.1917 49.2197 76.2074 48.7424C75.7986 49.1098 75.2612 49.301 74.7122 49.2744C74.3601 49.2788 74.0119 49.2002 73.6958 49.0448C73.4047 48.903 73.1614 48.6791 72.9958 48.4008C72.8276 48.1081 72.7515 47.7714 72.7774 47.4348C72.7894 47.0621 72.9101 46.701 73.1246 46.396C73.3388 46.0969 73.6287 45.8602 73.9646 45.71C74.3249 45.5461 74.7169 45.4639 75.1126 45.4692C75.4659 45.4467 75.8197 45.5026 76.1489 45.6328C76.478 45.763 76.7743 45.9643 77.0166 46.2224ZM75.8126 48.0032C75.9074 47.9258 75.9847 47.8291 76.0393 47.7195C76.0938 47.6099 76.1244 47.4899 76.129 47.3676C76.14 47.2507 76.124 47.1329 76.0822 47.0232C76.0405 46.9135 75.9741 46.8148 75.8882 46.7348C75.6826 46.5589 75.4162 46.4705 75.1462 46.4884C74.8837 46.4777 74.6261 46.5622 74.421 46.7264C74.3259 46.8042 74.249 46.902 74.1958 47.0128C74.1426 47.1236 74.1143 47.2447 74.113 47.3676C74.1003 47.4863 74.1154 47.6063 74.1572 47.7181C74.199 47.8299 74.2663 47.9304 74.3538 48.0116C74.553 48.1808 74.8096 48.267 75.0706 48.2524C75.3399 48.2613 75.6033 48.1728 75.8126 48.0032Z" fill="#263238"/>
<path d="M78.1928 51.3072C78.1189 51.2288 78.0624 51.1355 78.0272 51.0337C77.992 50.9319 77.9788 50.8237 77.9884 50.7164C77.9923 50.6044 78.0192 50.4944 78.0674 50.3933C78.1155 50.2921 78.184 50.202 78.2684 50.1284C78.4309 49.9818 78.6432 49.9026 78.862 49.9072C78.9654 49.9052 79.0681 49.9237 79.1642 49.9616C79.2603 49.9996 79.348 50.0563 79.422 50.1284C79.4968 50.2056 79.5538 50.2982 79.5891 50.3998C79.6244 50.5014 79.6372 50.6094 79.6264 50.7164C79.622 50.9417 79.529 51.1561 79.3676 51.3134C79.2062 51.4706 78.9893 51.5579 78.764 51.5564C78.6565 51.5582 78.5499 51.5369 78.4513 51.4939C78.3528 51.4509 78.2646 51.3872 78.1928 51.3072Z" fill="#263238"/>
<path d="M84.4903 46.2226C84.9327 46.7266 85.1259 47.4518 85.0783 48.3954C85.0613 48.9983 84.901 49.5886 84.6107 50.1174C84.3501 50.5807 83.9611 50.9589 83.4907 51.2066C82.9971 51.4588 82.449 51.5857 81.8947 51.5762C81.5918 51.5787 81.2898 51.543 80.9959 51.4698C80.7418 51.4126 80.4993 51.3122 80.2791 51.173L80.8391 50.1678C81.1627 50.3769 81.5435 50.4797 81.9283 50.4618C82.1496 50.4716 82.3706 50.4376 82.5787 50.3616C82.7868 50.2857 82.9778 50.1694 83.1407 50.0194C83.4722 49.675 83.6646 49.2203 83.6811 48.7426C83.2723 49.11 82.735 49.3012 82.1859 49.2746C81.8338 49.279 81.4856 49.2003 81.1695 49.045C80.8702 48.9024 80.6216 48.6719 80.457 48.3841C80.2923 48.0964 80.2195 47.7652 80.2483 47.435C80.2626 47.0622 80.3841 46.7015 80.5983 46.3962C80.8126 46.0971 81.1025 45.8603 81.4383 45.7102C81.7976 45.5463 82.1887 45.4641 82.5835 45.4694C82.9373 45.4459 83.2919 45.5013 83.6216 45.6315C83.9514 45.7618 84.2481 45.9637 84.4903 46.2226ZM83.2891 48.0034C83.384 47.926 83.4612 47.8292 83.5158 47.7196C83.5703 47.6101 83.6009 47.4901 83.6055 47.3678C83.6158 47.251 83.5995 47.1333 83.5578 47.0237C83.5161 46.9141 83.4501 46.8154 83.3647 46.735C83.1579 46.5592 82.8908 46.4708 82.6199 46.4886C82.3575 46.4786 82.1002 46.563 81.8947 46.7266C81.8001 46.8047 81.7238 46.9026 81.671 47.0133C81.6183 47.1241 81.5905 47.2451 81.5895 47.3678C81.5762 47.4862 81.5908 47.6062 81.6322 47.718C81.6735 47.8298 81.7404 47.9304 81.8275 48.0118C82.0272 48.1802 82.2835 48.2663 82.5443 48.2526C82.8145 48.2621 83.0791 48.1736 83.2891 48.0034Z" fill="#263238"/>
<path d="M89.8799 46.2224C90.3186 46.7264 90.5137 47.4507 90.4651 48.3952C90.4475 48.9977 90.2883 49.5877 90.0003 50.1172C89.7394 50.5803 89.3506 50.9585 88.8803 51.2064C88.387 51.4594 87.8387 51.5864 87.2843 51.576C86.9815 51.5784 86.6795 51.5426 86.3855 51.4696C86.1315 51.4119 85.8891 51.3116 85.6687 51.1728L86.2287 50.1676C86.5532 50.377 86.935 50.4797 87.3207 50.4616C87.542 50.4714 87.763 50.4374 87.9711 50.3615C88.1792 50.2855 88.3702 50.1692 88.5331 50.0192C88.8636 49.6744 89.055 49.2197 89.0707 48.7424C88.6619 49.1098 88.1246 49.301 87.5755 49.2744C87.2234 49.2788 86.8752 49.2002 86.5591 49.0448C86.268 48.903 86.0247 48.6791 85.8591 48.4008C85.6914 48.1078 85.6144 47.7716 85.6379 47.4348C85.6522 47.0621 85.7737 46.7014 85.9879 46.396C86.2022 46.0969 86.4921 45.8602 86.8279 45.71C87.1882 45.5461 87.5802 45.4639 87.9759 45.4692C88.3292 45.4467 88.683 45.5026 89.0122 45.6328C89.3413 45.763 89.6377 45.9643 89.8799 46.2224ZM88.6759 48.0032C88.7708 47.9258 88.848 47.8291 88.9026 47.7195C88.9571 47.6099 88.9877 47.4899 88.9923 47.3676C89.0033 47.2507 88.9873 47.1329 88.9455 47.0232C88.9038 46.9135 88.8374 46.8148 88.7515 46.7348C88.5459 46.5589 88.2796 46.4705 88.0095 46.4884C87.747 46.4777 87.4894 46.5622 87.2843 46.7264C87.1892 46.8042 87.1123 46.902 87.0591 47.0128C87.0059 47.1236 86.9776 47.2447 86.9763 47.3676C86.9636 47.4863 86.9788 47.6063 87.0206 47.7181C87.0624 47.8299 87.1297 47.9304 87.2171 48.0116C87.4163 48.1808 87.673 48.267 87.9339 48.2524C88.1984 48.2579 88.4563 48.1696 88.6619 48.0032H88.6759Z" fill="#263238"/>
<path d="M68.4659 58.1308C68.1299 57.9462 67.8547 57.668 67.6735 57.33C67.489 56.9789 67.4057 56.5834 67.4327 56.1876C67.4509 55.7845 67.5744 55.3931 67.7911 55.0526C68.0078 54.7121 68.31 54.4344 68.6675 54.2472C69.0405 54.0556 69.4551 53.9594 69.8743 53.9672C70.2822 53.9574 70.6855 54.0539 71.0447 54.2472C71.3784 54.4319 71.6516 54.709 71.8315 55.0452C72.0158 55.3964 72.0982 55.7921 72.0695 56.1876C72.0541 56.5911 71.9323 56.9834 71.7164 57.3247C71.5006 57.6659 71.1983 57.944 70.8403 58.1308C70.4693 58.3222 70.0565 58.4184 69.6391 58.4108C69.2303 58.4215 68.8259 58.3249 68.4659 58.1308ZM70.5435 57.6464C70.8043 57.5049 71.0242 57.2986 71.1819 57.0472C71.3426 56.7882 71.4342 56.4922 71.4479 56.1876C71.4686 55.8913 71.4076 55.5949 71.2715 55.3308C71.1453 55.0814 70.9512 54.8728 70.7115 54.7288C70.456 54.5825 70.166 54.5071 69.8715 54.5104C69.5637 54.5069 69.2601 54.5821 68.9895 54.7288C68.7264 54.8704 68.5045 55.0779 68.3455 55.3308C68.1848 55.5889 68.0932 55.884 68.0795 56.1876C68.0589 56.4849 68.1199 56.7821 68.2559 57.0472C68.3866 57.2992 68.5881 57.5075 68.8355 57.6464C69.0973 57.7949 69.3942 57.8704 69.6951 57.8648C69.9917 57.8641 70.2834 57.789 70.5435 57.6464Z" fill="#263238"/>
<path d="M76.894 54.0063L76.6644 58.3715H76.1604L73.7132 55.1151L73.5424 58.3715H72.918L73.1476 54.0063H73.6404L76.0876 57.2599L76.2584 54.0063H76.894Z" fill="#263238"/>
<path d="M78.2014 54.0063H78.8258L78.6242 57.8283H80.9902L80.9594 58.3715H77.9746L78.2014 54.0063Z" fill="#263238"/>
<path d="M82.9723 56.8623L82.8939 58.3715H82.2751L82.3563 56.8483L80.7715 54.0063H81.4379L82.7147 56.3079L84.2379 54.0063H84.8567L82.9723 56.8623Z" fill="#263238"/>
<path opacity="0.1" d="M74.6628 88.5713C83.2608 88.4853 90.2028 85.6151 90.1683 82.1604C90.1337 78.7057 83.1357 75.9749 74.5377 76.0609C65.9398 76.1469 58.9977 79.0171 59.0323 82.4718C59.0668 85.9264 66.0649 88.6573 74.6628 88.5713Z" fill="black"/>
<path d="M66.6394 59.8389C66.6394 59.8389 69.8538 61.5189 74.1994 68.5945C78.545 75.6701 84.369 75.0625 84.369 75.0625L84.8758 75.6673L85.2146 76.9469L83.4982 78.8341L78.4582 78.5541L72.9674 74.0517L66.995 64.6213L65.875 61.5889L66.6394 59.8389Z" fill="#7F78D8"/>
<path opacity="0.5" d="M66.6394 59.8389C66.6394 59.8389 69.8538 61.5189 74.1994 68.5945C78.545 75.6701 84.369 75.0625 84.369 75.0625L84.8758 75.6673L85.2146 76.9469L83.4982 78.8341L78.4582 78.5541L72.9674 74.0517L66.995 64.6213L65.875 61.5889L66.6394 59.8389Z" fill="black"/>
<path d="M66.6398 59.8389C66.6398 59.8389 61.5494 61.8605 62.9802 70.5489L63.2182 81.4689H64.565L65.1978 70.6917C65.1978 70.6917 69.9718 70.8261 74.9138 80.6625C74.9138 80.6625 75.2442 82.0765 80.161 82.0765C85.0778 82.0765 90.6498 79.8533 90.6498 79.8533L90.689 77.8317L84.3666 75.0709C84.3666 75.0709 84.8986 77.7645 80.007 77.2941C75.1154 76.8237 75.4346 69.4037 66.6398 59.8389Z" fill="#7F78D8"/>
<path d="M63.0925 62.9329C63.0925 62.9329 66.3069 64.6129 70.6525 71.6885C74.9981 78.7641 80.8221 78.1565 80.8221 78.1565L81.3289 78.7613L81.6677 80.0409L79.9513 81.9281L74.9113 81.6481L69.4205 77.1345L63.4481 67.7153L62.3281 64.6829L63.0925 62.9329Z" fill="#7F78D8"/>
<path opacity="0.5" d="M63.0925 62.9329C63.0925 62.9329 66.3069 64.6129 70.6525 71.6885C74.9981 78.7641 80.8221 78.1565 80.8221 78.1565L81.3289 78.7613L81.6677 80.0409L79.9513 81.9281L74.9113 81.6481L69.4205 77.1345L63.4481 67.7153L62.3281 64.6829L63.0925 62.9329Z" fill="black"/>
<path d="M63.0919 62.9329C63.0919 62.9329 58.0015 64.9601 59.4323 73.6401L59.6703 84.5601H61.0171L61.6499 73.7829C61.6499 73.7829 66.4099 73.9173 71.3659 83.7537C71.3659 83.7537 71.6963 85.1537 76.6131 85.1537C81.5299 85.1537 87.1019 82.9305 87.1019 82.9305L87.1411 80.9089L80.8187 78.1481C80.8187 78.1481 81.3507 80.8417 76.4591 80.3713C71.5675 79.9009 71.8867 72.4977 63.0919 62.9329Z" fill="#7F78D8"/>
<path opacity="0.1" d="M63.0919 62.9329C63.0919 62.9329 58.0015 64.9601 59.4323 73.6401L59.6703 84.5601H61.0171L61.6499 73.7829C61.6499 73.7829 66.4099 73.9173 71.3659 83.7537C71.3659 83.7537 71.6963 85.1537 76.6131 85.1537C81.5299 85.1537 87.1019 82.9305 87.1019 82.9305L87.1411 80.9089L80.8187 78.1481C80.8187 78.1481 81.3507 80.8417 76.4591 80.3713C71.5675 79.9009 71.8867 72.4977 63.0919 62.9329Z" fill="white"/>
<path opacity="0.2" d="M58.5194 105.703H88.4794C89.4821 105.693 90.4438 105.303 91.1711 104.613C91.8983 103.923 92.3372 102.982 92.3994 101.982L96.1514 30.38C96.1945 29.6996 96.0378 29.0214 95.7005 28.4289C95.3632 27.8365 94.8601 27.3555 94.253 27.0452L57.5898 105.582C57.8932 105.662 58.2057 105.703 58.5194 105.703Z" fill="white"/>
<path d="M81.0069 85.5204L83.2329 84.0896L84.5041 86.2708L87.0717 85.8396L87.3153 88.396L89.7849 89.0372L88.9589 91.5264L90.8993 93.1308L89.1493 95.1188L90.2245 97.4092L87.8501 98.5572L87.8781 101.133L85.2937 101.242L84.2661 103.662L81.9141 102.712L80.0101 104.558L78.2993 102.712L75.8493 103.662L75.0765 101.242L72.5005 101.133L72.8001 98.5572L70.5461 97.4092L71.8621 95.1188L70.3193 93.1308L72.4277 91.5264L71.8649 89.0372L74.3989 88.396L74.9113 85.8396L77.4341 86.2708L78.9321 84.0896L81.0069 85.5204Z" fill="#7F78D8"/>
<path opacity="0.1" d="M81.0069 85.5204L83.2329 84.0896L84.5041 86.2708L87.0717 85.8396L87.3153 88.396L89.7849 89.0372L88.9589 91.5264L90.8993 93.1308L89.1493 95.1188L90.2245 97.4092L87.8501 98.5572L87.8781 101.133L85.2937 101.242L84.2661 103.662L81.9141 102.712L80.0101 104.558L78.2993 102.712L75.8493 103.662L75.0765 101.242L72.5005 101.133L72.8001 98.5572L70.5461 97.4092L71.8621 95.1188L70.3193 93.1308L72.4277 91.5264L71.8649 89.0372L74.3989 88.396L74.9113 85.8396L77.4341 86.2708L78.9321 84.0896L81.0069 85.5204Z" fill="black"/>
<path d="M75.5213 92.8873C75.3393 92.8311 75.172 92.7355 75.0312 92.6073L75.2104 92.2685C75.3368 92.3814 75.4843 92.468 75.6445 92.5233C75.8239 92.5885 76.0135 92.6217 76.2045 92.6213C76.4042 92.6346 76.6035 92.5899 76.7784 92.4925C76.8381 92.4567 76.8882 92.4069 76.9243 92.3474C76.9604 92.2879 76.9815 92.2204 76.9857 92.1509C76.9901 92.1041 76.9844 92.0568 76.9689 92.0124C76.9535 91.9679 76.9286 91.9273 76.8961 91.8933C76.8263 91.8258 76.742 91.775 76.6496 91.7449C76.5119 91.6974 76.3717 91.6573 76.2296 91.6245C76.0391 91.5835 75.852 91.5283 75.6696 91.4594C75.5337 91.406 75.4141 91.3182 75.3225 91.2045C75.2219 91.0717 75.1768 90.9051 75.1964 90.7397C75.204 90.5809 75.2564 90.4275 75.3477 90.2973C75.4518 90.1577 75.5922 90.0493 75.7536 89.9837C75.9626 89.8997 76.1866 89.8597 76.4116 89.8661C76.5904 89.8656 76.7684 89.8892 76.9409 89.9361C77.0991 89.9741 77.2484 90.0425 77.3804 90.1377L77.218 90.4849C77.0945 90.4038 76.9596 90.3415 76.8177 90.3001C76.6796 90.2585 76.5363 90.2368 76.392 90.2357C76.1959 90.2245 76.0008 90.2723 75.832 90.3729C75.7722 90.4104 75.7224 90.4618 75.6868 90.5228C75.6512 90.5838 75.6309 90.6524 75.6277 90.7229C75.6234 90.7694 75.6292 90.8161 75.6447 90.8601C75.6602 90.9041 75.6849 90.9442 75.7173 90.9777C75.7897 91.0453 75.8755 91.0969 75.9693 91.1289C76.1063 91.1751 76.2455 91.2144 76.3864 91.2465C76.572 91.289 76.7545 91.3442 76.9325 91.4117C77.0678 91.4662 77.1872 91.5538 77.2796 91.6665C77.3786 91.7969 77.4237 91.9603 77.4057 92.1229C77.3988 92.2815 77.3453 92.4344 77.2516 92.5625C77.1456 92.7038 77.002 92.8125 76.8373 92.8761C76.6273 92.9599 76.4024 92.9999 76.1764 92.9937C75.9538 92.9936 75.7325 92.9576 75.5213 92.8873Z" fill="white"/>
<path d="M79.993 92.1928H78.369L77.991 92.9599H77.543L79.0858 89.9023H79.5198L80.749 92.9599H80.2898L79.993 92.1928ZM79.8586 91.8428L79.279 90.3447L78.5398 91.8399L79.8586 91.8428Z" fill="white"/>
<path d="M83.8575 89.8997L82.3567 92.9601H81.9227L80.7383 89.9025H81.2003L82.1691 92.4225L83.4095 89.9025L83.8575 89.8997Z" fill="white"/>
<path d="M86.324 92.5793L86.3044 92.9573H84.084L84.2464 89.8997H86.4024L86.3828 90.2805H84.6636L84.6132 91.2185H86.1476L86.128 91.5909H84.5936L84.5432 92.5793H86.324Z" fill="white"/>
<path d="M77.7506 97.9498L77.7114 98.7142H74.651L74.6846 98.1066L76.3226 96.631C76.4607 96.5141 76.5806 96.3773 76.6782 96.225C76.7388 96.1217 76.7743 96.0057 76.7818 95.8862C76.7902 95.8172 76.7816 95.7471 76.7567 95.6822C76.7318 95.6173 76.6914 95.5595 76.639 95.5138C76.5 95.4168 76.332 95.3704 76.163 95.3822C75.995 95.381 75.8288 95.4163 75.6758 95.4858C75.5288 95.5546 75.4009 95.6584 75.3034 95.7882L74.6426 95.3486C74.8174 95.1053 75.0529 94.9122 75.3258 94.7886C75.6279 94.6511 75.9571 94.5832 76.289 94.5898C76.5567 94.5827 76.823 94.6323 77.0702 94.7354C77.276 94.8212 77.4514 94.9664 77.5742 95.1526C77.6934 95.3411 77.7484 95.5631 77.731 95.7854C77.72 96.0017 77.6617 96.2129 77.5602 96.4042C77.4078 96.6547 77.2137 96.8772 76.9862 97.0622L76.009 97.9414L77.7506 97.9498Z" fill="white"/>
<path d="M80.861 96.5273C80.9893 96.6399 81.089 96.7814 81.1518 96.9401C81.2146 97.0988 81.2387 97.2702 81.2222 97.4401C81.2112 97.681 81.1347 97.9143 81.001 98.1149C80.8535 98.3276 80.65 98.4953 80.413 98.5993C80.1158 98.7291 79.7935 98.7913 79.4694 98.7813C79.1855 98.7829 78.9029 98.7452 78.6294 98.6693C78.3831 98.6059 78.1505 98.4977 77.9434 98.3501L78.3494 97.6333C78.5046 97.7558 78.6798 97.8506 78.8674 97.9133C79.0658 97.9758 79.2725 98.0079 79.4806 98.0085C79.6769 98.0174 79.8715 97.9688 80.0406 97.8685C80.107 97.8277 80.1622 97.771 80.2013 97.7036C80.2404 97.6361 80.2622 97.56 80.2646 97.4821C80.2723 97.4052 80.2585 97.3276 80.2249 97.2579C80.1914 97.1882 80.1392 97.1292 80.0742 97.0873C79.8479 96.9814 79.598 96.936 79.349 96.9557H78.313L78.6406 94.6765H81.1102L81.071 95.4297H79.391L79.2874 96.1969H79.6178C80.0583 96.1559 80.499 96.273 80.861 96.5273Z" fill="white"/>
<path d="M81.8023 96.5469C81.7108 96.4342 81.6429 96.3042 81.6025 96.1648C81.5621 96.0253 81.55 95.8791 81.5671 95.7349C81.5687 95.4335 81.6837 95.1436 81.8891 94.9229C81.985 94.8238 82.1005 94.7457 82.2283 94.6937C82.356 94.6416 82.4932 94.6167 82.6311 94.6205C82.7639 94.6145 82.8963 94.6386 83.0185 94.6909C83.1407 94.7433 83.2495 94.8226 83.3367 94.9229C83.5181 95.1525 83.6026 95.4439 83.5719 95.7349C83.571 96.036 83.4571 96.3258 83.2527 96.5469C83.1579 96.6469 83.043 96.7258 82.9156 96.7784C82.7883 96.831 82.6512 96.8561 82.5135 96.8521C82.3796 96.8579 82.2462 96.8334 82.1231 96.7806C82 96.7277 81.8904 96.6479 81.8023 96.5469ZM82.8551 96.2165C82.9478 96.0733 82.9955 95.9056 82.9923 95.7349C83.013 95.5702 82.9827 95.4031 82.9055 95.2561C82.8743 95.205 82.8302 95.1631 82.7776 95.1345C82.725 95.106 82.6657 95.0919 82.6059 95.0937C82.5437 95.0936 82.4824 95.1085 82.4273 95.1373C82.3722 95.1661 82.3249 95.2078 82.2895 95.2589C82.1978 95.4007 82.1492 95.5661 82.1495 95.7349C82.1295 95.9 82.1607 96.0671 82.2391 96.2137C82.2701 96.2652 82.3141 96.3075 82.3667 96.3365C82.4193 96.3655 82.4786 96.3802 82.5387 96.3789C82.6007 96.3797 82.6619 96.3652 82.717 96.3369C82.7721 96.3086 82.8195 96.2673 82.8551 96.2165ZM85.0391 94.6653H85.7251L82.7515 98.7141H82.0627L85.0391 94.6653ZM84.6499 98.6245C84.5002 98.5315 84.3829 98.3946 84.3139 98.2325C84.2344 98.0473 84.2017 97.8454 84.2187 97.6445C84.2257 97.4383 84.2793 97.2363 84.3755 97.0537C84.4618 96.8916 84.5918 96.7568 84.7507 96.6645C84.9105 96.572 85.0924 96.5245 85.2771 96.5273C85.4105 96.5214 85.5436 96.5458 85.6663 96.5987C85.789 96.6515 85.8981 96.7315 85.9855 96.8325C86.0766 96.9456 86.1446 97.0755 86.1854 97.2148C86.2263 97.3542 86.2392 97.5002 86.2235 97.6445C86.221 97.9459 86.1062 98.2354 85.9015 98.4565C85.8054 98.5554 85.6898 98.6333 85.5621 98.6853C85.4344 98.7374 85.2973 98.7624 85.1595 98.7589C84.9804 98.7628 84.8038 98.7163 84.6499 98.6245ZM85.4899 98.1205C85.5824 97.9793 85.6302 97.8134 85.6271 97.6445C85.6474 97.4798 85.6171 97.3128 85.5403 97.1657C85.5096 97.1142 85.4656 97.0719 85.4128 97.0433C85.3601 97.0148 85.3006 97.0009 85.2407 97.0033C85.179 97.0025 85.118 97.0166 85.0629 97.0444C85.0079 97.0722 84.9603 97.1129 84.9243 97.1629C84.8318 97.3065 84.7832 97.4738 84.7843 97.6445C84.7639 97.8096 84.7952 97.9769 84.8739 98.1233C84.905 98.1745 84.9492 98.2164 85.0018 98.245C85.0544 98.2735 85.1137 98.2875 85.1735 98.2857C85.2377 98.2885 85.3015 98.2748 85.3589 98.2459C85.4162 98.217 85.4652 98.1738 85.5011 98.1205H85.4899Z" fill="white"/>
</svg>
