<svg width="140" height="140" viewBox="0 0 140 140" fill="none" xmlns="http://www.w3.org/2000/svg">
<path d="M114.52 71.4251C89.7653 57.1451 49.7617 57.1451 25.1665 71.4251C0.571344 85.7051 0.714145 108.892 25.4801 123.183C50.2461 137.474 90.2385 137.477 114.834 123.183C139.429 108.889 139.286 85.7191 114.52 71.4251Z" fill="#F5F5F5"/>
<path d="M121.259 105.56C119.181 104.359 115.824 104.359 113.761 105.56C111.697 106.761 111.705 108.704 113.783 109.903C115.861 111.101 119.221 111.104 121.284 109.903C123.348 108.702 123.337 106.761 121.259 105.56Z" fill="#E6E6E6"/>
<path d="M83.9996 66.4636L122.64 88.774C122.724 88.8232 122.795 88.8939 122.844 88.9789C122.893 89.0639 122.919 89.1603 122.919 89.2584C122.919 89.3565 122.893 89.4529 122.844 89.5379C122.795 89.6229 122.724 89.6936 122.64 89.7428L107.682 98.3444C107.427 98.4919 107.137 98.5695 106.842 98.5695C106.547 98.5695 106.257 98.4919 106.002 98.3444L67.362 76.034C67.2772 75.9848 67.2067 75.9141 67.1577 75.8291C67.1088 75.7441 67.083 75.6477 67.083 75.5496C67.083 75.4515 67.1088 75.3551 67.1577 75.2701C67.2067 75.1851 67.2772 75.1144 67.362 75.0652L82.3196 66.4636C82.575 66.3162 82.8647 66.2385 83.1596 66.2385C83.4545 66.2385 83.7442 66.3162 83.9996 66.4636Z" fill="#E6E6E6"/>
<path d="M34.5627 91.1765C42.6547 86.5033 55.7335 86.5033 63.7751 91.1765C70.8815 95.3065 71.6683 101.699 66.1747 106.355C70.6071 106.075 75.2019 106.915 78.5871 108.895C84.5287 112.347 84.4979 117.945 78.5171 121.397C72.5363 124.849 62.8707 124.852 56.9291 121.397C52.2027 118.65 51.2591 114.545 54.0843 111.244C47.2691 112.23 39.7735 111.183 34.4675 108.1C26.4259 103.427 26.4679 95.8497 34.5627 91.1765Z" fill="#E6E6E6"/>
<path d="M102.31 28.4199L102.245 47.3591L103.505 48.0843L103.567 29.1451L102.31 28.4199Z" fill="#E0E0E0"/>
<path d="M103.569 29.145H103.566L103.505 48.0842L104.597 47.4486L104.658 29.775L103.569 29.145Z" fill="#F0F0F0"/>
<path opacity="0.2" d="M103.564 30.1615L103.567 29.1451L102.309 28.4199L102.307 29.4335L103.564 30.1615Z" fill="black"/>
<path opacity="0.2" d="M103.563 30.1614L104.448 29.6518L103.569 29.145H103.566L103.563 30.1614Z" fill="black"/>
<path d="M102.31 18.3931L102.245 26.9275L103.505 27.6527L103.567 19.1183L102.31 18.3931Z" fill="#E0E0E0"/>
<path d="M103.569 19.1184H103.566L103.505 27.6528L104.597 27.0172L104.658 19.7484L103.569 19.1184Z" fill="#F0F0F0"/>
<path opacity="0.2" d="M103.564 20.1347L103.567 19.1183L102.309 18.3931L102.307 19.4067L103.564 20.1347Z" fill="black"/>
<path opacity="0.2" d="M103.563 20.1348L104.448 19.628L103.569 19.1184H103.566L103.563 20.1348Z" fill="black"/>
<path d="M87.164 19.6756L88.2588 19.04L88.1944 37.9792L87.0996 38.6148L87.164 19.6756Z" fill="#F0F0F0"/>
<path d="M87.0996 38.6148L88.1944 37.9792L119.745 56.1932L118.65 56.8288L87.0996 38.6148Z" fill="#F5F5F5"/>
<path d="M85.9097 17.5027L119.977 37.1699L119.905 59.0099L85.8369 39.3343L85.9097 17.5027ZM118.65 56.8399L118.715 37.9007L87.1641 19.7007L87.0997 38.6399L118.65 56.8399Z" fill="#E0E0E0"/>
<path d="M85.9102 17.5028L87.005 16.8672L121.07 36.5344L119.978 37.17L85.9102 17.5028Z" fill="#F5F5F5"/>
<path d="M119.977 37.17L121.069 36.5344L120.999 58.366L119.904 59.0016L119.977 37.17Z" fill="#F0F0F0"/>
<path d="M87.164 9.64878L88.2588 9.01318L88.1944 17.5476L87.0996 18.1832L87.164 9.64878Z" fill="#F0F0F0"/>
<path d="M87.0996 18.1832L88.1944 17.5476L119.745 35.7616L118.65 36.3972L87.0996 18.1832Z" fill="#F5F5F5"/>
<path d="M85.9097 7.47583L119.977 27.143L119.905 38.5698L85.8369 18.9026L85.9097 7.47583ZM118.65 36.3998L118.72 27.8626L87.1641 9.64863L87.0997 18.183L118.65 36.3998Z" fill="#E0E0E0"/>
<path d="M85.9102 7.47593L87.005 6.84033L121.07 26.5075L119.978 27.1431L85.9102 7.47593Z" fill="#F5F5F5"/>
<path d="M119.977 27.1432L121.069 26.5076L120.999 37.9344L119.904 38.57L119.977 27.1432Z" fill="#F0F0F0"/>
<path d="M30.1865 28.4816L30.2061 35.3108L31.0349 35.7896L31.0125 28.0056L30.1865 28.4816Z" fill="#F0F0F0"/>
<path d="M21.2715 40.4684L21.2743 41.426L31.0351 35.7896L30.2063 35.3108L21.2715 40.4684Z" fill="#F5F5F5"/>
<path d="M32.01 26.2808L20.25 33.068L20.278 43.148L32.038 36.358L32.01 26.2808ZM21.2804 41.44V40.4824L21.2608 33.6532L30.1956 28.4956L31.0356 28.0196L31.058 35.8036L21.2804 41.44Z" fill="#E0E0E0"/>
<path d="M32.0097 26.2809L31.1809 25.7993L19.4209 32.5893L20.2497 33.0681L32.0097 26.2809Z" fill="#F5F5F5"/>
<path d="M19.4209 32.5891L19.4517 42.6719L20.2777 43.1507L20.2497 33.0679L19.4209 32.5891Z" fill="#F0F0F0"/>
<path d="M30.1816 43.8061L30.2012 50.6353L31.0272 51.1169L31.0076 43.3301L30.1816 43.8061Z" fill="#F0F0F0"/>
<path d="M21.2656 55.7929L21.2684 56.7505L31.0264 51.1169L30.2004 50.6353L21.2656 55.7929Z" fill="#F5F5F5"/>
<path d="M32.0041 41.6052L20.2441 48.3952L20.2721 58.4752L32.0321 51.6852L32.0041 41.6052ZM21.2801 56.7504V55.7928L21.2605 48.9636L30.1953 43.806L31.0213 43.33L31.0409 51.1168L21.2801 56.7504Z" fill="#E0E0E0"/>
<path d="M32.0038 41.6051L31.175 41.1235L19.415 47.9135L20.2438 48.3951L32.0038 41.6051Z" fill="#F5F5F5"/>
<path d="M19.415 47.9136L19.443 57.9964L20.2718 58.478L20.2438 48.3952L19.415 47.9136Z" fill="#F0F0F0"/>
<path d="M47.6814 35.4816V33.824L47.6002 33.88L47.4602 33.9612C46.2366 34.7004 45.0074 35.8624 43.8622 37.1196C43.6756 37.3268 43.4889 37.5368 43.3022 37.7496C42.339 38.8556 41.3926 40.0232 40.4238 41.1096V43.7892L41.5942 43.1144C43.1176 40.205 45.1839 37.6141 47.6814 35.4816Z" fill="#EBEBEB"/>
<path d="M47.6955 39.5948V37.3772C46.6796 38.4572 45.8413 39.6914 45.2119 41.034L47.6955 39.5948Z" fill="#EBEBEB"/>
<path d="M45.2032 41.0341C45.8326 39.6915 46.6708 38.4573 47.6868 37.3773V35.4817C45.1887 37.6158 43.1224 40.2087 41.5996 43.1201L45.2032 41.0397V41.0341Z" fill="#FAFAFA"/>
<path d="M42.7585 33.1968L42.9264 33.138C43.24 33.026 43.5564 32.8944 43.8756 32.7488L43.9904 32.6928C44.0996 32.6424 44.206 32.5892 44.3124 32.5332C44.4972 32.4408 44.682 32.3428 44.8724 32.2364C44.6848 32.3428 44.5 32.4408 44.3124 32.5332L44.3796 32.5024C44.542 32.4184 44.7044 32.3288 44.8696 32.2224L44.9732 32.1636L45.0572 32.1132C45.9423 31.5899 46.7799 30.9903 47.5604 30.3212L47.6669 30.2288V27.4288C45.8889 28.3388 44.1389 28.6216 42.7277 28.182C41.7593 27.8722 40.9314 27.2307 40.3896 26.3704L40.4093 33.6504C41.2096 33.6093 42.0003 33.4567 42.7585 33.1968Z" fill="#FAFAFA"/>
<path d="M43.8648 37.1083C45.01 35.8511 46.2392 34.6891 47.4628 33.9499L47.6028 33.8687L47.6784 33.8239V32.2195C45.3061 33.6163 43.1077 35.2893 41.1292 37.2035C40.8912 37.4303 40.656 37.6627 40.418 37.8839V41.1095C41.3868 40.0119 42.3332 38.8443 43.2964 37.7495C43.4849 37.5292 43.6744 37.3155 43.8648 37.1083Z" fill="#FAFAFA"/>
<path d="M47.6732 32.2197V30.2429L47.5668 30.3353C46.7862 31.0045 45.9487 31.6041 45.0636 32.1273L44.9796 32.1777L44.876 32.2365C44.7108 32.3289 44.5484 32.4185 44.386 32.5165L44.3188 32.5473C44.2124 32.6033 44.106 32.6537 43.9996 32.7069L43.882 32.7629C43.5628 32.9085 43.2464 33.0429 42.9328 33.1521L42.7648 33.2109C42.0047 33.4764 41.2111 33.6338 40.4072 33.6785V37.8981C40.6452 37.6769 40.8804 37.4445 41.1184 37.2177C43.098 35.2983 45.2983 33.6206 47.6732 32.2197Z" fill="#EBEBEB"/>
<path d="M47.6532 25.1747V23.1027C46.5332 22.8395 45.6568 22.0219 45.2004 20.7983L42.7168 22.2319C43.1515 23.1595 43.854 23.9355 44.7339 24.4601C45.6137 24.9846 46.6305 25.2335 47.6532 25.1747Z" fill="#FAFAFA"/>
<path d="M42.7194 28.1931C44.1194 28.6327 45.8806 28.3499 47.6586 27.4399V25.1747C46.6341 25.2358 45.6149 24.988 44.7328 24.4633C43.8507 23.9386 43.1464 23.1613 42.711 22.2319L40.373 23.5815V26.3815C40.9169 27.2434 41.748 27.8851 42.7194 28.1931Z" fill="#EBEBEB"/>
<path d="M48.0455 18.6816L39.9619 23.3492L40.0207 44.4948L48.1043 39.8272L48.0455 18.6816ZM40.4295 43.7892V41.1096V37.884V33.6644L40.4099 26.3844V23.5844L42.7479 22.2348L45.2315 20.8012L47.6731 19.4012V23.1168V25.1888V27.454V30.254V32.2308V33.8352V35.4928V37.3884V39.606L45.1811 41.0452L41.5999 43.12L40.4295 43.7892Z" fill="white"/>
<path d="M47.6477 23.1028V19.3872L45.2061 20.7872C45.6401 22.022 46.5249 22.8396 47.6477 23.1028Z" fill="#EBEBEB"/>
<path d="M48.1041 39.8271L40.0205 44.4947L40.0233 45.0547L48.5913 40.1099L48.1041 39.8271Z" fill="#CACACA"/>
<path d="M48.0449 18.6816L48.1037 39.8272L48.5909 40.11L48.5293 18.4016L48.0449 18.6816Z" fill="#F0F0F0"/>
<path d="M49.8403 16.1504L38.6543 22.6044L38.7243 47.32L49.8991 40.88L49.8403 16.1504ZM40.0403 45.0576V44.4976L39.9815 23.352L48.0651 18.6844L48.5495 18.4044L48.6111 40.1128L40.0403 45.0576Z" fill="#E0E0E0"/>
<path d="M49.8293 16.1504L48.9081 15.6548L37.7305 22.1088L38.6545 22.6044L49.8293 16.1504Z" fill="#F5F5F5"/>
<path d="M37.7305 22.1089L37.8005 46.8133L38.7245 47.3061L38.6545 22.6045L37.7305 22.1089Z" fill="#F0F0F0"/>
<path d="M27.3479 31.0745L29.7867 32.9925L29.7895 34.8657L21.6863 39.5445L21.6807 37.6713L23.2263 34.6025L24.6123 35.6805L24.1223 37.2037L24.8335 35.8513L27.3479 31.0745Z" fill="#E0E0E0"/>
<path d="M24.6878 32.018C25.0686 31.7968 25.3794 31.976 25.3794 32.4128C25.3662 32.6509 25.2969 32.8826 25.1772 33.0889C25.0575 33.2952 24.8908 33.4703 24.6906 33.6C24.3098 33.8212 23.999 33.642 23.999 33.2052C24.0118 32.967 24.0809 32.7351 24.2007 32.5288C24.3204 32.3224 24.4873 32.1474 24.6878 32.018Z" fill="#E0E0E0"/>
<path d="M27.342 46.3989L29.778 48.3169L29.7836 50.1901L21.6804 54.8717L21.6748 52.9957L23.2204 49.9297L24.6064 51.0049L24.1164 52.5281L24.8276 51.1757L27.342 46.3989Z" fill="#E0E0E0"/>
<path d="M24.6792 47.3425C25.0628 47.1241 25.3708 47.3005 25.3736 47.7373C25.361 47.9763 25.292 48.209 25.1723 48.4163C25.0526 48.6236 24.8855 48.7997 24.6848 48.9301C24.304 49.1513 23.9932 48.9749 23.9932 48.5353C24.0055 48.2965 24.074 48.0639 24.1932 47.8566C24.3124 47.6494 24.4789 47.4732 24.6792 47.3425Z" fill="#E0E0E0"/>
<path d="M68.9473 53.7822V75.9974L106.733 97.6974V75.4822L68.9473 53.7822Z" fill="#E0E0E0"/>
<path d="M121.637 66.9031V89.1211L106.732 97.6975V75.4823L121.637 66.9031Z" fill="#E0E0E0"/>
<path opacity="0.1" d="M68.9473 53.7822V75.9974L106.733 97.6974V75.4822L68.9473 53.7822Z" fill="black"/>
<path opacity="0.2" d="M121.637 66.9031V89.1211L106.732 97.6975V75.4823L121.637 66.9031Z" fill="black"/>
<path d="M87.2617 78.1816L104.949 88.34V83.1236L87.2617 72.968V78.1816Z" fill="#E0E0E0"/>
<path d="M104.949 81.8775V76.5155L87.2617 66.3599V71.7191L104.949 81.8775Z" fill="#E0E0E0"/>
<path d="M85.4782 65.3352L70.7334 56.8652V62.2272L85.4782 70.6944V65.3352Z" fill="#E0E0E0"/>
<path d="M87.2617 84.4591L104.949 94.6147V89.5859L87.2617 79.4275V84.4591Z" fill="#E0E0E0"/>
<path d="M85.4782 71.9431L70.7334 63.4731V68.6895L85.4782 77.1567V71.9431Z" fill="#E0E0E0"/>
<path d="M70.7334 69.9355V74.9643L85.4782 83.4343V78.4027L70.7334 69.9355Z" fill="#E0E0E0"/>
<path d="M68.4121 51.7131L107.077 73.9199L122.172 65.2315L83.4845 43.0107L68.4121 51.7131Z" fill="#EBEBEB"/>
<path d="M68.4121 51.7131V53.9811L107.077 76.1907V73.9199L68.4121 51.7131Z" fill="#E0E0E0"/>
<path d="M122.172 65.2314V67.5022L107.077 76.1906V73.9198L122.172 65.2314Z" fill="#E0E0E0"/>
<path opacity="0.1" d="M122.172 65.2314V67.5022L107.077 76.1906V73.9198L122.172 65.2314Z" fill="black"/>
<path d="M122.554 98.658L117.514 98.8036L112.474 98.658C112.258 102.057 112.922 105.518 113.837 107.209C114.053 107.645 114.402 108 114.834 108.223C116.318 109.08 118.715 109.08 120.19 108.223C120.628 107.996 120.978 107.63 121.187 107.184C122.114 105.482 122.769 102.04 122.554 98.658Z" fill="white"/>
<path d="M121.069 96.6C123.029 97.7396 123.049 99.5848 121.092 100.722C119.134 101.858 115.948 101.861 113.977 100.722C112.006 99.582 112 97.7368 113.96 96.6C115.92 95.4632 119.098 95.4604 121.069 96.6Z" fill="#EBEBEB"/>
<path d="M120.289 97.0507C121.829 97.9383 121.834 99.3775 120.308 100.265C118.782 101.153 116.296 101.153 114.756 100.265C113.216 99.3775 113.21 97.9383 114.739 97.0507C116.268 96.1631 118.751 96.1631 120.289 97.0507Z" fill="#E0E0E0"/>
<g opacity="0.15">
<path d="M120.289 97.0507C121.829 97.9383 121.834 99.3775 120.308 100.265C118.782 101.153 116.296 101.153 114.756 100.265C113.216 99.3775 113.21 97.9383 114.739 97.0507C116.268 96.1631 118.751 96.1631 120.289 97.0507Z" fill="black"/>
</g>
<path d="M125.793 77.1904C114.456 80.9032 114.355 88.4884 116.909 93.8896C117.555 94.9816 119.504 95.5696 121.204 88.8496L118.225 89.2304L121.697 87.472L122.598 84.7756L119.703 84.9912L123.377 83.44C124.053 81.3092 124.86 79.2221 125.793 77.1904Z" fill="#7F78D8"/>
<path opacity="0.2" d="M125.793 77.1904C114.456 80.9032 114.355 88.4884 116.909 93.8896C117.555 94.9816 119.504 95.5696 121.204 88.8496L118.225 89.2304L121.697 87.472L122.598 84.7756L119.703 84.9912L123.377 83.44C124.053 81.3092 124.86 79.2221 125.793 77.1904Z" fill="black"/>
<path opacity="0.2" d="M125.793 77.1904C114.456 80.9032 114.355 88.4884 116.909 93.8896C117.555 94.9816 119.504 95.5696 121.204 88.8496L118.225 89.2304L121.697 87.472L122.598 84.7756L119.703 84.9912L123.377 83.44C124.053 81.3092 124.86 79.2221 125.793 77.1904Z" fill="white"/>
<path d="M122.587 79.0859C116.609 83.6247 116.068 88.8271 117.757 94.2591C117.16 89.4767 116.514 84.6411 122.587 79.0859Z" fill="white"/>
<path d="M106.591 84.896C117.768 86.4696 119.124 93.5144 117.64 98.9716C117.222 100.092 115.503 100.968 112.804 94.9928L115.64 94.8528L112.118 93.8L110.83 91.4396L113.56 91.1596L109.884 90.3196C108.899 88.4454 107.8 86.634 106.591 84.896Z" fill="#7F78D8"/>
<path opacity="0.2" d="M106.591 84.896C117.768 86.4696 119.124 93.5144 117.64 98.9716C117.222 100.092 115.503 100.968 112.804 94.9928L115.64 94.8528L112.118 93.8L110.83 91.4396L113.56 91.1596L109.884 90.3196C108.899 88.4454 107.8 86.634 106.591 84.896Z" fill="white"/>
<path opacity="0.1" d="M106.591 84.896C117.768 86.4696 119.124 93.5144 117.64 98.9716C117.222 100.092 115.503 100.968 112.804 94.9928L115.64 94.8528L112.118 93.8L110.83 91.4396L113.56 91.1596L109.884 90.3196C108.899 88.4454 107.8 86.634 106.591 84.896Z" fill="black"/>
<path d="M109.892 86.1279C116.214 89.3619 117.583 94.1163 116.911 99.4559C116.673 94.9031 116.48 90.2915 109.892 86.1279Z" fill="white"/>
<path d="M129.081 87.5364C118.83 87.7016 116.819 93.9036 117.547 98.9856C117.797 100.047 119.25 101.024 122.349 95.942L119.807 95.4996L123.103 94.9396L124.528 92.9572L122.081 92.4L125.488 92.064C126.59 90.4816 127.79 88.9695 129.081 87.5364Z" fill="#7F78D8"/>
<path d="M125.952 88.2783C119.89 90.4847 118.126 94.6175 118.135 99.5035C118.857 95.4267 119.56 91.2939 125.952 88.2783Z" fill="white"/>
<path opacity="0.2" d="M129.081 87.5364C118.83 87.7016 116.819 93.9036 117.547 98.9856C117.797 100.047 119.25 101.024 122.349 95.942L119.807 95.4996L123.103 94.9396L124.528 92.9572L122.081 92.4L125.488 92.064C126.59 90.4816 127.79 88.9695 129.081 87.5364Z" fill="white"/>
<path d="M79.1224 44.4165L91.0001 37.6041C91.8037 37.1421 93.7077 37.7665 93.7077 39.0573C93.7072 38.9526 93.6793 38.8498 93.6268 38.7592C93.5743 38.6687 93.499 38.5934 93.4084 38.541C93.3177 38.4886 93.2149 38.4609 93.1102 38.4606C93.0056 38.4603 92.9026 38.4874 92.8117 38.5393L80.934 45.3601C80.6318 45.5357 80.3883 45.7968 80.234 46.1105L78.4561 45.0801C78.6144 44.8029 78.8446 44.5736 79.1224 44.4165Z" fill="#7F78D8"/>
<path d="M80.234 46.1048C80.1108 46.3512 80.0324 49.5656 80.0324 49.8484V59.5084C80.0323 59.613 80.0597 59.7158 80.1119 59.8065C80.164 59.8972 80.2391 59.9725 80.3296 60.025C80.4201 60.0775 80.5228 60.1052 80.6274 60.1055C80.7321 60.1057 80.8349 60.0785 80.9256 60.0264C80.6612 60.1915 80.3579 60.2837 80.0464 60.2936C79.7348 60.3036 79.4262 60.2309 79.1518 60.0831C78.8774 59.9352 78.647 59.7174 78.484 59.4517C78.321 59.1861 78.2312 58.882 78.2236 58.5704V45.9704C78.2249 45.6632 78.305 45.3615 78.456 45.094L80.234 46.1048Z" fill="#7F78D8"/>
<path opacity="0.4" d="M79.1224 44.4165L91.0001 37.6041C91.8037 37.1421 93.7077 37.7665 93.7077 39.0573C93.7072 38.9526 93.6793 38.8498 93.6268 38.7592C93.5743 38.6687 93.499 38.5934 93.4084 38.541C93.3177 38.4886 93.2149 38.4609 93.1102 38.4606C93.0056 38.4603 92.9026 38.4874 92.8117 38.5393L80.934 45.3601C80.6318 45.5357 80.3883 45.7968 80.234 46.1105L78.4561 45.0801C78.6144 44.8029 78.8446 44.5736 79.1224 44.4165Z" fill="white"/>
<path opacity="0.2" d="M80.234 46.1048C80.1108 46.3512 80.0324 49.5656 80.0324 49.8484V59.5084C80.0323 59.613 80.0597 59.7158 80.1119 59.8065C80.164 59.8972 80.2391 59.9725 80.3296 60.025C80.4201 60.0775 80.5228 60.1052 80.6274 60.1055C80.7321 60.1057 80.8349 60.0785 80.9256 60.0264C80.6612 60.1915 80.3579 60.2837 80.0464 60.2936C79.7348 60.3036 79.4262 60.2309 79.1518 60.0831C78.8774 59.9352 78.647 59.7174 78.484 59.4517C78.321 59.1861 78.2312 58.882 78.2236 58.5704V45.9704C78.2249 45.6632 78.305 45.3615 78.456 45.094L80.234 46.1048Z" fill="white"/>
<path d="M92.8086 38.5391L80.9338 45.3599C80.6603 45.5162 80.4329 45.742 80.2745 46.0143C80.1162 46.2867 80.0326 46.5961 80.0322 46.9111V59.5111C80.0321 59.6157 80.0595 59.7185 80.1117 59.8092C80.1638 59.8999 80.2389 59.9753 80.3294 60.0277C80.4199 60.0802 80.5226 60.108 80.6272 60.1082C80.7319 60.1085 80.8347 60.0812 80.9254 60.0291L92.8002 53.2363C93.0749 53.0804 93.3033 52.8544 93.4622 52.5814C93.6211 52.3084 93.7047 51.9982 93.7046 51.6823V39.0571C93.7042 38.9524 93.6763 38.8497 93.6238 38.7591C93.5713 38.6685 93.496 38.5933 93.4053 38.5409C93.3147 38.4885 93.2119 38.4608 93.1072 38.4605C93.0025 38.4601 92.8996 38.4873 92.8086 38.5391Z" fill="#7F78D8"/>
<path d="M74.6342 61.6673L74.4578 61.6281C74.4207 61.6217 74.3866 61.6041 74.3598 61.5777C74.1974 61.4377 74.2394 61.0457 74.4858 60.7377L80.0326 53.8105L78.2238 52.7773L72.6742 59.7045C72.4306 60.0097 72.3942 60.4017 72.551 60.5445L74.273 61.5217L69.793 67.1357L71.6046 68.1689L76.4822 62.0593L74.6342 61.6673Z" fill="#7F78D8"/>
<path d="M80.0321 56.35V53.8132L74.4797 60.7404C74.2333 61.0456 74.1997 61.4376 74.3537 61.5804C74.3805 61.6068 74.4147 61.6244 74.4517 61.6308L74.6281 61.67L76.4733 62.0648L71.5957 68.1744L78.2513 61.348C78.5677 61.026 78.6377 60.508 78.3857 60.3988L76.9073 59.752L77.0949 59.5476L80.0321 56.35Z" fill="#7F78D8"/>
<path d="M78.3915 60.3961L77.1007 59.5449L76.9131 59.7493L78.3915 60.3961Z" fill="#7F78D8"/>
<path opacity="0.4" d="M74.6342 61.6673L74.4578 61.6281C74.4207 61.6217 74.3866 61.6041 74.3598 61.5777C74.1974 61.4377 74.2394 61.0457 74.4858 60.7377L80.0326 53.8105L78.2238 52.7773L72.6742 59.7045C72.4306 60.0097 72.3942 60.4017 72.551 60.5445L74.273 61.5217L69.793 67.1357L71.6046 68.1689L76.4822 62.0593L74.6342 61.6673Z" fill="white"/>
<path opacity="0.2" d="M78.3915 60.3961L77.1007 59.5449L76.9131 59.7493L78.3915 60.3961Z" fill="white"/>
<path d="M88.9198 45.8529L90.7482 44.8001V47.1353L90.5214 47.2669L90.5353 51.6125L83.7873 55.5101V51.1617L83.5605 51.2933V48.9581L86.173 47.4489L85.6801 47.3761C85.4526 47.3566 85.2329 47.2837 85.0389 47.1633C84.9161 47.0639 84.8215 46.934 84.7646 46.7866C84.7076 46.6392 84.6902 46.4795 84.7141 46.3233C84.7427 46.0685 84.8223 45.8221 84.9484 45.5988C85.0744 45.3756 85.2443 45.1801 85.4478 45.0241C85.4653 45.0104 85.4841 44.9982 85.5037 44.9877C85.5952 44.9246 85.7018 44.8872 85.8126 44.8793C85.9234 44.8714 86.0343 44.8934 86.1337 44.9429C86.2756 45.0373 86.392 45.1652 86.4725 45.3153C86.6629 45.6205 86.8449 45.9509 87.0157 46.2813C87.2896 45.4704 87.666 44.6979 88.1357 43.9825C88.3359 43.6674 88.5759 43.3794 88.8498 43.1257C88.9409 43.0466 89.0393 42.9763 89.1437 42.9157C89.2331 42.852 89.335 42.8081 89.4427 42.7868C89.5503 42.7656 89.6613 42.7675 89.7682 42.7925C90.1714 42.9269 90.1965 43.5653 90.0117 44.1253C89.8216 44.6487 89.5368 45.1328 89.1717 45.5533C89.0933 45.6401 89.0094 45.7493 88.9198 45.8529ZM86.4473 53.5165V49.6273L84.1878 50.9293V54.8213L86.4473 53.5165ZM90.1405 51.3857V47.4937L87.8837 48.7985V52.6877L90.1433 51.3857M88.5082 44.2933C88.0559 44.9865 87.7052 45.7408 87.4666 46.5333C87.9878 46.1246 88.4578 45.6545 88.8666 45.1333C89.1211 44.8424 89.3221 44.5087 89.4601 44.1477C89.5441 43.8957 89.5385 43.5877 89.3873 43.5429C89.3433 43.5341 89.2979 43.5345 89.2541 43.5442C89.2102 43.5538 89.1688 43.5725 89.1325 43.5989C89.0808 43.6297 89.032 43.6653 88.9869 43.7053C88.7986 43.8821 88.6339 44.0826 88.4969 44.3017M86.4278 49.1793V47.7541L83.9385 49.1905V50.6129L86.4249 49.1793M90.345 46.9141V45.4917L87.8585 46.9281V48.3505L90.345 46.9141ZM85.9909 46.6341L86.3605 46.6901C86.2261 46.4353 86.0805 46.1861 85.9349 45.9509C85.8808 45.8413 85.8023 45.7455 85.7053 45.6709C85.6738 45.653 85.6381 45.6436 85.6017 45.6436C85.5654 45.6436 85.5297 45.653 85.4982 45.6709C85.3897 45.7687 85.3218 45.9036 85.3078 46.0489C85.299 46.1265 85.3106 46.2051 85.3416 46.2768C85.3725 46.3485 85.4217 46.4108 85.4841 46.4577C85.6431 46.5481 85.8199 46.6026 86.0021 46.6173" fill="white"/>
<path d="M85.8647 31.9928C86.1447 31.836 86.3631 31.962 86.3631 32.2728V34.8992C86.3532 35.0707 86.3032 35.2376 86.2171 35.3864C86.131 35.5352 86.0113 35.6618 85.8675 35.756C85.5875 35.9156 85.3691 35.7868 85.3691 35.476V32.8524C85.3784 32.6802 85.4282 32.5127 85.5143 32.3634C85.6004 32.214 85.7204 32.087 85.8647 31.9928Z" fill="#7F78D8"/>
<path d="M79.1814 37.9149C79.3522 37.8141 79.5202 37.8225 79.6098 37.9513L80.7606 39.5641C80.8978 39.7573 80.8166 40.1549 80.5814 40.4489C80.5128 40.5368 80.4282 40.6109 80.3322 40.6673C80.2699 40.7192 80.1898 40.7444 80.1091 40.7376C80.0284 40.7308 79.9536 40.6925 79.9009 40.6309L78.753 39.0181C78.6158 38.8249 78.6942 38.4301 78.9322 38.1333C78.9999 38.0447 79.0846 37.9704 79.1814 37.9149Z" fill="#7F78D8"/>
<path d="M74.2981 46.3681C74.3739 46.322 74.4614 46.2987 74.5501 46.3009L76.5297 46.4717C76.7677 46.4913 76.8489 46.7937 76.7145 47.1465C76.6322 47.3666 76.481 47.5542 76.2833 47.6813C76.2099 47.728 76.1237 47.7505 76.0369 47.7457L74.0545 47.5777C73.8165 47.5553 73.7325 47.2557 73.8697 46.9029C73.9512 46.6832 74.1015 46.4957 74.2981 46.3681Z" fill="#7F78D8"/>
<path d="M74.8103 53.7601C75.0903 53.6005 75.3087 53.7293 75.3115 54.0401C75.3018 54.2117 75.2518 54.3787 75.1658 54.5275C75.0797 54.6764 74.9598 54.8029 74.8159 54.8969L72.5199 56.2325C72.2399 56.3893 72.0243 56.2605 72.0215 55.9525C72.0308 55.7807 72.0805 55.6136 72.1666 55.4647C72.2528 55.3158 72.3728 55.1894 72.5171 55.0957L74.8103 53.7601Z" fill="#7F78D8"/>
<path d="M80.3935 61.6C80.4667 61.5528 80.5528 61.5293 80.6399 61.5328C80.8779 61.5552 80.9591 61.8576 80.8247 62.2104L79.6879 65.142C79.6064 65.361 79.456 65.5477 79.2595 65.674C79.1847 65.7201 79.0981 65.7434 79.0103 65.7412C78.7723 65.7216 78.6911 65.4192 78.8255 65.0664L79.9623 62.1348C80.0438 61.9143 80.1953 61.7265 80.3935 61.6Z" fill="#7F78D8"/>
<path d="M85.9438 60.1161C86.2238 59.9565 86.4422 60.0825 86.4422 60.3961V63.0197C86.4325 63.1917 86.3826 63.3591 86.2965 63.5083C86.2105 63.6576 86.0906 63.7847 85.9466 63.8793C85.6666 64.0361 85.4482 63.9073 85.4482 63.5993V60.9757C85.4571 60.8034 85.5066 60.6357 85.5928 60.4863C85.6789 60.3369 85.7992 60.21 85.9438 60.1161Z" fill="#7F78D8"/>
<path d="M91.4842 55.2049C91.6578 55.1041 91.8258 55.1097 91.9182 55.2413L93.0662 56.8541C93.2034 57.0473 93.1222 57.4449 92.887 57.7389C92.8184 57.8268 92.7339 57.9009 92.6378 57.9573C92.5756 58.0092 92.4955 58.0344 92.4147 58.0276C92.334 58.0208 92.2593 57.9825 92.2066 57.9209L91.0586 56.3081C90.9214 56.1149 90.9998 55.7173 91.2378 55.4233C91.3062 55.3363 91.3896 55.2623 91.4842 55.2049Z" fill="#7F78D8"/>
<path d="M95.5334 48.1935C95.6077 48.1462 95.6947 48.1228 95.7826 48.1263L97.765 48.2943C98.003 48.3167 98.0842 48.6191 97.947 48.9719C97.8673 49.1919 97.7166 49.3791 97.5186 49.5039C97.4445 49.5516 97.3575 49.5751 97.2695 49.5711L95.2898 49.4003C95.0518 49.3807 94.9678 49.0783 95.105 48.7255C95.1866 48.5066 95.3369 48.3199 95.5334 48.1935Z" fill="#7F78D8"/>
<path d="M99.2882 39.6397C99.5682 39.4829 99.7838 39.6117 99.7838 39.9197C99.775 40.0913 99.7258 40.2583 99.6402 40.4072C99.5545 40.5561 99.4349 40.6827 99.291 40.7765L97.0062 42.0953C96.7262 42.2549 96.5078 42.1261 96.5078 41.8153C96.5169 41.6431 96.5665 41.4755 96.6526 41.3261C96.7388 41.1768 96.8589 41.0498 97.0034 40.9557L99.2882 39.6397Z" fill="#7F78D8"/>
<path d="M97.4735 32.9897C97.6443 32.8917 97.8095 32.8973 97.9019 33.0261C98.0391 33.2193 97.9607 33.6169 97.7227 33.9109L95.7599 36.3637C95.6923 36.4522 95.6088 36.5272 95.5135 36.5849C95.3427 36.6857 95.1719 36.6801 95.0823 36.5485C94.9423 36.3553 95.0235 35.9577 95.2615 35.6637L97.2355 33.2109C97.3008 33.1233 97.3814 33.0484 97.4735 32.9897Z" fill="#7F78D8"/>
<path d="M92.5596 30.1896C92.6339 30.1423 92.7208 30.1189 92.8088 30.1224C93.044 30.1448 93.128 30.4444 92.9908 30.7972L91.8568 33.7288C91.7746 33.9481 91.6245 34.1355 91.4284 34.2636C91.3536 34.3097 91.2671 34.333 91.1792 34.3308C90.9412 34.3084 90.86 34.006 90.9944 33.656L92.1144 30.7244C92.1998 30.502 92.3563 30.3139 92.5596 30.1896Z" fill="#7F78D8"/>
<g opacity="0.6">
<path d="M85.8647 31.9928C86.1447 31.836 86.3631 31.962 86.3631 32.2728V34.8992C86.3532 35.0707 86.3032 35.2376 86.2171 35.3864C86.131 35.5352 86.0113 35.6618 85.8675 35.756C85.5875 35.9156 85.3691 35.7868 85.3691 35.476V32.8524C85.3784 32.6802 85.4282 32.5127 85.5143 32.3634C85.6004 32.214 85.7204 32.087 85.8647 31.9928Z" fill="white"/>
<path d="M79.1814 37.9149C79.3522 37.8141 79.5202 37.8225 79.6098 37.9513L80.7606 39.5641C80.8978 39.7573 80.8166 40.1549 80.5814 40.4489C80.5128 40.5368 80.4282 40.6109 80.3322 40.6673C80.2699 40.7192 80.1898 40.7444 80.1091 40.7376C80.0284 40.7308 79.9536 40.6925 79.9009 40.6309L78.753 39.0181C78.6158 38.8249 78.6942 38.4301 78.9322 38.1333C78.9999 38.0447 79.0846 37.9704 79.1814 37.9149Z" fill="white"/>
<path d="M74.2981 46.3681C74.3739 46.322 74.4614 46.2987 74.5501 46.3009L76.5297 46.4717C76.7677 46.4913 76.8489 46.7937 76.7145 47.1465C76.6322 47.3666 76.481 47.5542 76.2833 47.6813C76.2099 47.728 76.1237 47.7505 76.0369 47.7457L74.0545 47.5777C73.8165 47.5553 73.7325 47.2557 73.8697 46.9029C73.9512 46.6832 74.1015 46.4957 74.2981 46.3681Z" fill="white"/>
<path d="M74.8103 53.7601C75.0903 53.6005 75.3087 53.7293 75.3115 54.0401C75.3018 54.2117 75.2518 54.3787 75.1658 54.5275C75.0797 54.6764 74.9598 54.8029 74.8159 54.8969L72.5199 56.2325C72.2399 56.3893 72.0243 56.2605 72.0215 55.9525C72.0308 55.7807 72.0805 55.6136 72.1666 55.4647C72.2528 55.3158 72.3728 55.1894 72.5171 55.0957L74.8103 53.7601Z" fill="white"/>
<path d="M80.3935 61.6C80.4667 61.5528 80.5528 61.5293 80.6399 61.5328C80.8779 61.5552 80.9591 61.8576 80.8247 62.2104L79.6879 65.142C79.6064 65.361 79.456 65.5477 79.2595 65.674C79.1847 65.7201 79.0981 65.7434 79.0103 65.7412C78.7723 65.7216 78.6911 65.4192 78.8255 65.0664L79.9623 62.1348C80.0438 61.9143 80.1953 61.7265 80.3935 61.6Z" fill="white"/>
<path d="M85.9429 60.1161C86.2229 59.9565 86.4413 60.0825 86.4413 60.3961V63.0197C86.4315 63.1917 86.3816 63.3591 86.2956 63.5083C86.2095 63.6576 86.0897 63.7847 85.9457 63.8793C85.6657 64.0361 85.4473 63.9073 85.4473 63.5993V60.9757C85.4561 60.8034 85.5057 60.6357 85.5918 60.4863C85.6779 60.3369 85.7982 60.21 85.9429 60.1161Z" fill="white"/>
<path d="M91.4842 55.2049C91.6578 55.1041 91.8258 55.1097 91.9182 55.2413L93.0662 56.8541C93.2034 57.0473 93.1222 57.4449 92.887 57.7389C92.8184 57.8268 92.7339 57.9009 92.6378 57.9573C92.5756 58.0092 92.4955 58.0344 92.4147 58.0276C92.334 58.0208 92.2593 57.9825 92.2066 57.9209L91.0586 56.3081C90.9214 56.1149 90.9998 55.7173 91.2378 55.4233C91.3062 55.3363 91.3896 55.2623 91.4842 55.2049Z" fill="white"/>
<path d="M95.5334 48.1935C95.6077 48.1462 95.6947 48.1228 95.7826 48.1263L97.765 48.2943C98.003 48.3167 98.0842 48.6191 97.947 48.9719C97.8673 49.1919 97.7166 49.3791 97.5186 49.5039C97.4445 49.5516 97.3575 49.5751 97.2695 49.5711L95.2898 49.4003C95.0518 49.3807 94.9678 49.0783 95.105 48.7255C95.1866 48.5066 95.3369 48.3199 95.5334 48.1935Z" fill="white"/>
<path d="M99.2882 39.6397C99.5682 39.4829 99.7838 39.6117 99.7838 39.9197C99.775 40.0913 99.7258 40.2583 99.6402 40.4072C99.5545 40.5561 99.4349 40.6827 99.291 40.7765L97.0062 42.0953C96.7262 42.2549 96.5078 42.1261 96.5078 41.8153C96.5169 41.6431 96.5665 41.4755 96.6526 41.3261C96.7388 41.1768 96.8589 41.0498 97.0034 40.9557L99.2882 39.6397Z" fill="white"/>
<path d="M97.4735 32.9897C97.6443 32.8917 97.8095 32.8973 97.9019 33.0261C98.0391 33.2193 97.9607 33.6169 97.7227 33.9109L95.7599 36.3637C95.6923 36.4522 95.6088 36.5272 95.5135 36.5849C95.3427 36.6857 95.1719 36.6801 95.0823 36.5485C94.9423 36.3553 95.0235 35.9577 95.2615 35.6637L97.2355 33.2109C97.3008 33.1233 97.3814 33.0484 97.4735 32.9897Z" fill="white"/>
<path d="M92.5596 30.1896C92.6339 30.1423 92.7208 30.1189 92.8088 30.1224C93.044 30.1448 93.128 30.4444 92.9908 30.7972L91.8568 33.7288C91.7746 33.9481 91.6245 34.1355 91.4284 34.2636C91.3536 34.3097 91.2671 34.333 91.1792 34.3308C90.9412 34.3084 90.86 34.006 90.9944 33.656L92.1144 30.7244C92.1998 30.502 92.3563 30.3139 92.5596 30.1896Z" fill="white"/>
</g>
<path d="M59.867 75.0763C62.625 76.9943 65.747 78.3187 68.0402 80.8891C72.3438 85.6883 72.4446 93.4107 69.065 98.9015C65.6854 104.392 59.3938 107.691 52.9902 108.444C46.2702 109.236 39.2226 107.38 33.9502 103.141C28.6778 98.9015 25.3234 92.2739 25.3262 85.5007C25.329 78.7275 28.7954 71.9991 34.4598 68.3059C39.6314 64.9459 47.0598 63.9715 52.2454 67.8299C54.8662 69.7899 56.6162 72.6571 59.2454 74.6143C59.4414 74.7795 59.6542 74.9307 59.867 75.0763Z" fill="#7F78D8"/>
<path opacity="0.2" d="M59.867 75.0763C62.625 76.9943 65.747 78.3187 68.0402 80.8891C72.3438 85.6883 72.4446 93.4107 69.065 98.9015C65.6854 104.392 59.3938 107.691 52.9902 108.444C46.2702 109.236 39.2226 107.38 33.9502 103.141C28.6778 98.9015 25.3234 92.2739 25.3262 85.5007C25.329 78.7275 28.7954 71.9991 34.4598 68.3059C39.6314 64.9459 47.0598 63.9715 52.2454 67.8299C54.8662 69.7899 56.6162 72.6571 59.2454 74.6143C59.4414 74.7795 59.6542 74.9307 59.867 75.0763Z" fill="black"/>
<path opacity="0.1" d="M59.867 75.0763C62.625 76.9943 65.747 78.3187 68.0402 80.8891C72.3438 85.6883 72.4446 93.4107 69.065 98.9015C65.6854 104.392 59.3938 107.691 52.9902 108.444C46.2702 109.236 39.2226 107.38 33.9502 103.141C28.6778 98.9015 25.3234 92.2739 25.3262 85.5007C25.329 78.7275 28.7954 71.9991 34.4598 68.3059C39.6314 64.9459 47.0598 63.9715 52.2454 67.8299C54.8662 69.7899 56.6162 72.6571 59.2454 74.6143C59.4414 74.7795 59.6542 74.9307 59.867 75.0763Z" fill="white"/>
<path opacity="0.1" d="M58.7416 103.2C58.7416 103.155 58.7416 103.107 58.722 103.062C58.4921 101.568 57.8024 100.181 56.7487 99.0966C55.695 98.0118 54.3295 97.282 52.842 97.0088C50.1778 96.4995 47.6248 95.5221 45.3016 94.122C43.6524 93.1252 42.0956 91.9016 40.2476 91.364C38.4483 90.8477 36.527 90.9582 34.7988 91.6776C36.3528 90.048 39.0156 89.3312 41.1464 90.0676C39.6736 87.8136 38.3772 85.3832 37.8676 82.7372C37.358 80.0912 37.722 77.1904 39.3152 75.0176C39.9953 74.0922 40.8722 73.3291 41.8827 72.7835C42.8932 72.2378 44.0122 71.9231 45.159 71.8621C46.3058 71.801 47.4519 71.9951 48.5146 72.4304C49.5774 72.8656 50.5303 73.5312 51.3048 74.3792C52.8868 76.1068 53.7772 78.5372 54.8132 80.6372C55.558 82.1436 56.3308 83.6864 57.5572 84.8372C59.4108 86.5704 62.0764 87.1948 63.9972 88.8524C66.1784 90.734 67.1164 93.7412 67.1276 96.6168C67.0926 98.5589 66.8103 100.489 66.2876 102.36C64.0346 104.51 61.347 106.153 58.4056 107.178C58.8305 105.897 58.9456 104.534 58.7416 103.2Z" fill="black"/>
<path d="M28.9353 84.5824C29.0195 79.9103 30.7586 75.4197 33.8432 71.9096C36.9277 68.3995 41.1576 66.0976 45.7801 65.4136C46.4215 65.4751 47.0577 65.5818 47.6841 65.7328C42.8251 65.9909 38.2441 68.0793 34.8623 71.5779C31.4806 75.0765 29.549 79.7258 29.4561 84.5908C29.3329 90.888 32.4129 97.3056 37.6965 101.758C41.8349 105.246 47.3341 107.562 53.3765 108.394L52.9901 108.444C52.4469 108.508 51.9009 108.553 51.3549 108.584C45.9845 107.542 41.1237 105.328 37.3549 102.144C31.9593 97.6024 28.8093 91.0336 28.9353 84.5824Z" fill="white"/>
<path d="M61.1806 107.828L60.4806 109.2C59.5006 108.296 59.3242 107.565 59.3242 107.565C59.6406 106.445 60.0102 105.308 60.1922 104.765C60.2874 105.535 60.8138 106.198 61.0322 106.949C61.1171 107.235 61.1669 107.53 61.1806 107.828Z" fill="#7F78D8"/>
<path d="M61.1469 109.233L60.4805 109.2L61.1721 107.828C61.2001 108.293 61.1609 108.763 61.1469 109.233Z" fill="#7F78D8"/>
<path opacity="0.1" d="M61.1806 107.828L60.4806 109.2C59.5006 108.296 59.3242 107.565 59.3242 107.565C59.6406 106.445 60.0102 105.308 60.1922 104.765C60.2874 105.535 60.8138 106.198 61.0322 106.949C61.1171 107.235 61.1669 107.53 61.1806 107.828Z" fill="black"/>
<path opacity="0.4" d="M61.1469 109.233L60.4805 109.2L61.1721 107.828C61.2001 108.293 61.1609 108.763 61.1469 109.233Z" fill="black"/>
<path d="M60.6449 103.135C60.8834 102.789 61.1574 102.469 61.4625 102.18C61.2918 102.779 61.2918 103.413 61.4625 104.012C61.6697 104.807 62.0421 105.552 62.2269 106.352C62.4537 107.324 62.4033 108.371 62.8149 109.281C63.0202 109.724 63.3256 110.113 63.7071 110.417C64.0886 110.721 64.5357 110.932 65.0129 111.034C65.3633 111.129 65.7368 111.083 66.0545 110.908C66.1882 110.813 66.2866 110.676 66.3345 110.519C66.5422 110.951 66.7937 111.361 67.0849 111.742C67.4097 112.165 67.8157 112.627 67.7261 113.142C67.6733 113.358 67.5578 113.552 67.3943 113.702C67.2309 113.851 67.0267 113.949 66.8077 113.982C66.3703 114.045 65.9244 114.009 65.5029 113.876C64.5758 113.675 63.6909 113.314 62.8877 112.809C62.0812 112.295 61.4906 111.503 61.2273 110.583C61.132 110.137 61.0981 109.68 61.1265 109.225C61.1405 108.755 61.1797 108.284 61.1601 107.825C61.1508 107.525 61.1047 107.227 61.0229 106.938C60.8017 106.187 60.2753 105.524 60.1829 104.754C60.1829 104.712 60.1689 104.67 60.1661 104.628C60.1611 104.092 60.329 103.568 60.6449 103.135Z" fill="#455A64"/>
<path d="M60.6449 103.135C60.8834 102.789 61.1574 102.469 61.4625 102.18C61.2918 102.779 61.2918 103.413 61.4625 104.012C61.6697 104.807 62.0421 105.552 62.2269 106.352C62.4537 107.324 62.4033 108.371 62.8149 109.281C63.0202 109.724 63.3256 110.113 63.7071 110.417C64.0886 110.721 64.5357 110.932 65.0129 111.034C65.3633 111.129 65.7368 111.083 66.0545 110.908C66.1882 110.813 66.2866 110.676 66.3345 110.519C66.5422 110.951 66.7937 111.361 67.0849 111.742C67.4097 112.165 67.8157 112.627 67.7261 113.142C67.6733 113.358 67.5578 113.552 67.3943 113.702C67.2309 113.851 67.0267 113.949 66.8077 113.982C66.3703 114.045 65.9244 114.009 65.5029 113.876C64.5758 113.675 63.6909 113.314 62.8877 112.809C62.0812 112.295 61.4906 111.503 61.2273 110.583C61.132 110.137 61.0981 109.68 61.1265 109.225C61.1405 108.755 61.1797 108.284 61.1601 107.825C61.1508 107.525 61.1047 107.227 61.0229 106.938C60.8017 106.187 60.2753 105.524 60.1829 104.754C60.1829 104.712 60.1689 104.67 60.1661 104.628C60.1611 104.092 60.329 103.568 60.6449 103.135Z" fill="#7F78D8"/>
<path d="M65.0241 111.034C64.5469 110.932 64.0998 110.721 63.7183 110.417C63.3369 110.113 63.0314 109.724 62.8261 109.281C62.4145 108.371 62.4649 107.321 62.2381 106.352C62.0533 105.551 61.6781 104.807 61.4737 104.011C61.303 103.413 61.303 102.779 61.4737 102.18L61.7117 101.945C62.8905 102.558 64.2317 103.065 65.3069 103.843C65.2815 105.22 65.3686 106.597 65.5673 107.959C65.7137 108.845 65.9823 109.707 66.3653 110.519C66.3175 110.676 66.219 110.813 66.0853 110.908C65.7622 111.089 65.3806 111.134 65.0241 111.034Z" fill="#AD5755"/>
<path d="M69.0288 107.402C69.2248 108.542 70.0956 110.86 70.0956 110.86C70.0956 110.86 66.0076 111.026 65.918 110.838L64.7168 108.982L69.0288 107.402Z" fill="#C77371"/>
<path d="M56.7928 80.3096L67.2172 86.1196C68.1621 86.6456 68.918 87.455 69.3781 88.4337C69.8383 89.4123 69.9796 90.5107 69.782 91.574L67.7604 102.48L69.418 107.752C67.9872 109.673 64.7 109.771 64.7 109.771C62.8688 106.092 61.522 104.53 60.4804 101.45C59.4388 98.3696 58.7444 96.2444 58.7444 96.2444L50.0868 93.8756C48.1072 93.3375 46.3344 92.2184 44.9973 90.6626C43.6601 89.1068 42.8201 87.186 42.5856 85.148C42.4372 83.8376 42.4316 82.9444 42.4316 82.9444L56.7928 80.3096Z" fill="#37474F"/>
<path opacity="0.2" d="M56.7145 83.2383C56.713 84.4023 56.2994 85.5282 55.5469 86.4163L62.9053 91.0223C63.9803 91.6994 64.7755 92.7411 65.1453 93.9567L67.7605 102.48L65.4113 92.9991C65.1416 91.908 64.455 90.9661 63.4989 90.3755L56.7061 86.1755C57.4005 84.4339 56.7145 83.2383 56.7145 83.2383Z" fill="black"/>
<path d="M67.8779 116.144L67.7827 117.676C66.5283 117.228 66.0775 116.628 66.0775 116.628C65.9291 115.475 65.8199 114.282 65.7695 113.702C66.1587 114.374 66.9035 114.778 67.4047 115.382C67.5931 115.616 67.752 115.872 67.8779 116.144Z" fill="#7F78D8"/>
<path d="M68.401 117.449L67.7822 117.676L67.8774 116.144C68.079 116.561 68.2302 117.009 68.401 117.449Z" fill="#7F78D8"/>
<path opacity="0.3" d="M68.401 117.449L67.7822 117.676L67.8774 116.144C68.079 116.561 68.2302 117.009 68.401 117.449Z" fill="black"/>
<path d="M65.543 112.039C65.6259 111.627 65.7516 111.224 65.9182 110.838C66.0002 111.455 66.2533 112.037 66.649 112.518C67.153 113.17 67.7886 113.708 68.273 114.369C68.8638 115.175 69.2278 116.158 69.953 116.833C70.3156 117.159 70.7493 117.397 71.2198 117.527C71.6903 117.657 72.1846 117.675 72.6634 117.58C72.8452 117.556 73.0202 117.496 73.1784 117.403C73.3365 117.31 73.4746 117.187 73.5846 117.04C73.6715 116.899 73.7108 116.734 73.6966 116.569C74.057 116.889 74.4491 117.17 74.867 117.409C75.3318 117.667 75.8862 117.933 76.0122 118.451C76.0464 118.67 76.0158 118.894 75.9242 119.095C75.8327 119.297 75.6842 119.467 75.497 119.585C75.1187 119.814 74.6939 119.956 74.2538 119.999C73.3221 120.18 72.3659 120.196 71.4286 120.047C70.4841 119.891 69.6301 119.392 69.029 118.647C68.7653 118.276 68.5543 117.87 68.4018 117.44C68.231 117.001 68.0798 116.553 67.8782 116.135C67.7525 115.862 67.5936 115.605 67.405 115.371C66.9038 114.769 66.159 114.366 65.7698 113.691C65.7502 113.655 65.725 113.621 65.7054 113.585C65.4898 113.099 65.433 112.559 65.543 112.039Z" fill="#7F78D8"/>
<path opacity="0.2" d="M65.543 112.039C65.6259 111.627 65.7516 111.224 65.9182 110.838C66.0002 111.455 66.2533 112.037 66.649 112.518C67.153 113.17 67.7886 113.708 68.273 114.369C68.8638 115.175 69.2278 116.158 69.953 116.833C70.3156 117.159 70.7493 117.397 71.2198 117.527C71.6903 117.657 72.1846 117.675 72.6634 117.58C72.8452 117.556 73.0202 117.496 73.1784 117.403C73.3365 117.31 73.4746 117.187 73.5846 117.04C73.6715 116.899 73.7108 116.734 73.6966 116.569C74.057 116.889 74.4491 117.17 74.867 117.409C75.3318 117.667 75.8862 117.933 76.0122 118.451C76.0464 118.67 76.0158 118.894 75.9242 119.095C75.8327 119.297 75.6842 119.467 75.497 119.585C75.1187 119.814 74.6939 119.956 74.2538 119.999C73.3221 120.18 72.3659 120.196 71.4286 120.047C70.4841 119.891 69.6301 119.392 69.029 118.647C68.7653 118.276 68.5543 117.87 68.4018 117.44C68.231 117.001 68.0798 116.553 67.8782 116.135C67.7525 115.862 67.5936 115.605 67.405 115.371C66.9038 114.769 66.159 114.366 65.7698 113.691C65.7502 113.655 65.725 113.621 65.7054 113.585C65.4898 113.099 65.433 112.559 65.543 112.039Z" fill="white"/>
<path d="M72.6739 117.578C72.1951 117.672 71.7008 117.654 71.2303 117.524C70.7598 117.394 70.3261 117.157 69.9635 116.83C69.2271 116.155 68.8631 115.172 68.2835 114.366C67.7991 113.705 67.1635 113.168 66.6595 112.515C66.2638 112.034 66.0107 111.452 65.9287 110.835L66.0547 110.527C67.3791 110.625 68.8127 110.561 70.1063 110.858C70.6236 112.133 71.2435 113.364 71.9599 114.54C72.4418 115.298 73.0281 115.985 73.7015 116.581C73.7157 116.745 73.6764 116.91 73.5895 117.051C73.3662 117.341 73.0368 117.53 72.6739 117.578Z" fill="#C77371"/>
<path d="M67.7401 40.8184C67.8076 41.0797 67.8226 41.3518 67.7842 41.6189C67.7459 41.886 67.6549 42.1429 67.5167 42.3746C67.3784 42.6064 67.1956 42.8084 66.9787 42.969C66.7619 43.1296 66.5153 43.2457 66.2533 43.3104C65.6702 42.4776 65.2047 41.5684 64.8701 40.6084C65.0031 40.2449 65.1025 39.87 65.1669 39.4884C66.1917 39.4184 67.4797 39.8244 67.7401 40.8184Z" fill="#AD5755"/>
<path d="M64.767 40.2976C64.767 39.9896 64.767 39.6816 64.767 39.3708C64.7482 39.1217 64.7905 38.8718 64.8902 38.6428C64.9495 38.534 65.0342 38.4411 65.137 38.372C65.2399 38.303 65.3578 38.2597 65.481 38.246C65.6041 38.2322 65.7287 38.2484 65.8443 38.2931C65.9598 38.3378 66.0628 38.4097 66.1446 38.5028C66.2298 38.4315 66.3333 38.3858 66.4433 38.371C66.5533 38.3561 66.6653 38.3727 66.7662 38.4188C66.8641 38.466 66.9461 38.5406 67.0023 38.6336C67.0584 38.7265 67.0864 38.8338 67.0826 38.9424C67.1623 38.8759 67.2582 38.8317 67.3606 38.8145C67.4629 38.7973 67.568 38.8076 67.6651 38.8444C67.7558 38.8777 67.8351 38.9362 67.8936 39.0131C67.9522 39.09 67.9875 39.1821 67.9954 39.2784C68.0894 39.2886 68.1793 39.3225 68.2566 39.3769C68.334 39.4312 68.3963 39.5042 68.4378 39.5892C68.5057 39.7441 68.5252 39.9158 68.4938 40.082C68.4443 40.4231 68.2863 40.7393 68.043 40.9836C67.9655 41.0669 67.8696 41.1311 67.763 41.1712C67.7088 41.1901 67.6506 41.1952 67.5939 41.1859C67.5372 41.1766 67.4836 41.1533 67.4383 41.118C67.3949 41.0805 67.3669 41.0283 67.3597 40.9715C67.3524 40.9146 67.3665 40.8571 67.3991 40.81C67.2939 40.8889 67.1631 40.9258 67.0322 40.9136C66.981 40.8962 66.9347 40.8667 66.8972 40.8278C66.8597 40.7888 66.8321 40.7414 66.8167 40.6896C66.7863 40.5851 66.774 40.4762 66.7802 40.3676C66.733 40.4605 66.655 40.5341 66.5595 40.576C66.464 40.6179 66.357 40.6253 66.2567 40.5972C66.1616 40.5586 66.0831 40.4879 66.0349 40.3972C65.9868 40.3066 65.9721 40.2019 65.9934 40.1016C65.9408 40.1911 65.8799 40.2755 65.8114 40.3536C65.7771 40.3873 65.7354 40.4126 65.6897 40.4276C65.644 40.4426 65.5954 40.4469 65.5478 40.4401C65.5001 40.4334 65.4547 40.4157 65.415 40.3886C65.3752 40.3614 65.3423 40.3255 65.3186 40.2836C65.2627 40.194 65.2255 40.094 65.2094 39.9896C65.0806 40.0988 64.8986 40.1884 64.767 40.2976Z" fill="#C77371"/>
<path d="M63.7334 44.4361L64.3998 42.5601V40.7681C64.4002 40.647 64.4332 40.5283 64.4952 40.4243C64.5573 40.3204 64.6462 40.2351 64.7526 40.1773L65.0158 40.0373C65.1155 39.9816 65.2278 39.9524 65.342 39.9524C65.4562 39.9524 65.5685 39.9816 65.6682 40.0373L66.9226 40.7597C66.8229 40.944 66.6579 41.0844 66.46 41.1533C66.2621 41.2222 66.0456 41.2146 65.853 41.1321L65.5198 40.9921C66.9534 42.2717 66.413 43.1817 66.413 43.1817L65.5506 45.3069L63.7334 44.4361Z" fill="#C77371"/>
<path d="M55.3027 61.8799L63.2799 43.6995C65.3883 43.3467 66.2087 44.5843 66.3851 45.3795L58.2651 67.3343L55.3027 61.8799Z" fill="#7F78D8"/>
<path opacity="0.3" d="M55.3027 61.8799L63.2799 43.6995C65.3883 43.3467 66.2087 44.5843 66.3851 45.3795L58.2651 67.3343L55.3027 61.8799Z" fill="white"/>
<path d="M44.8169 72.2708C43.3581 71.512 41.9105 70.6664 40.8437 69.4708C39.7769 68.2752 39.1357 66.6372 39.5249 65.114C39.8805 63.714 41.0145 62.6276 42.1625 61.6784C43.3105 60.7292 44.5537 59.8108 45.2593 58.5368C46.0993 57.0108 46.0517 55.2076 46.1637 53.4968C46.2757 51.786 46.6733 49.9128 48.0901 48.8236C49.1933 47.9836 50.7361 47.7708 52.1417 47.9836C53.5473 48.1964 54.8521 48.7956 56.1205 49.406C57.0053 49.8316 58.4893 50.5512 59.2005 51.2008C59.9117 51.8504 60.4493 52.7352 60.4297 53.6704C60.4191 54.1526 60.2482 54.6175 59.9439 54.9917C59.6397 55.3659 59.2195 55.6281 58.7497 55.7368C59.0297 57.5624 58.2289 59.7044 56.2857 61.0568C54.7541 62.1152 55.4793 64.2684 54.4097 65.8168C53.3401 67.3652 52.2593 68.9192 50.8033 70.1512C49.3473 71.3832 46.5333 73.1612 44.8169 72.2708Z" fill="#263238"/>
<path d="M55.5273 60.8077C57.4089 61.1073 58.3665 67.1889 58.9769 68.9949C59.6097 70.8597 58.7501 72.2121 57.7953 73.3405C57.6223 73.545 57.4938 73.7834 57.4181 74.0403C57.3424 74.2973 57.3212 74.5672 57.3557 74.8329L59.3325 82.1801C53.9341 86.1869 44.8845 84.2437 42.4317 82.9361C42.4039 80.3705 42.9451 77.8307 44.0165 75.4993C44.7407 73.9938 45.1476 72.3555 45.2121 70.6861L45.3045 67.9897L45.0245 60.1189L49.3393 62.2217L53.4693 62.0369C53.4693 62.0369 54.9141 60.7125 55.5273 60.8077Z" fill="#7F78D8"/>
<path opacity="0.1" d="M55.5273 60.8077C57.4089 61.1073 58.3665 67.1889 58.9769 68.9949C59.6097 70.8597 58.7501 72.2121 57.7953 73.3405C57.6223 73.545 57.4938 73.7834 57.4181 74.0403C57.3424 74.2973 57.3212 74.5672 57.3557 74.8329L59.3325 82.1801C53.9341 86.1869 44.8845 84.2437 42.4317 82.9361C42.4039 80.3705 42.9451 77.8307 44.0165 75.4993C44.7407 73.9938 45.1476 72.3555 45.2121 70.6861L45.3045 67.9897L45.0245 60.1189L49.3393 62.2217L53.4693 62.0369C53.4693 62.0369 54.9141 60.7125 55.5273 60.8077Z" fill="white"/>
<path d="M53.4802 60.2001V63.8933L53.9562 65.8001C53.9819 65.9061 53.972 66.0176 53.9279 66.1173C53.8838 66.2171 53.808 66.2995 53.7123 66.3518C53.6166 66.4042 53.5063 66.4234 53.3985 66.4067C53.2908 66.39 53.1915 66.3382 53.1162 66.2593L49.3418 62.2189V58.2793L53.4802 60.2001Z" fill="#C77371"/>
<path d="M49.5039 58.3521C49.8539 60.9617 52.2843 62.7845 53.4715 63.0701V60.2001L49.5039 58.3521Z" fill="#AD5755"/>
<path d="M50.7282 55.3869C50.6887 55.7165 50.6088 56.04 50.4902 56.3501C50.3855 56.5809 50.2086 56.7716 49.9862 56.8933C49.8791 56.9511 49.7593 56.9814 49.6376 56.9814C49.5159 56.9814 49.3961 56.9511 49.289 56.8933C49.4616 56.5962 49.5092 56.2427 49.4213 55.9106C49.3333 55.5785 49.117 55.2949 48.82 55.1223C48.5229 54.9496 48.1695 54.902 47.8374 54.99C47.5052 55.0779 47.2216 55.2942 47.049 55.5913C46.9297 55.7966 46.8569 56.0257 46.8356 56.2622C46.8144 56.4987 46.8451 56.7371 46.9258 56.9605C47.0916 57.4054 47.358 57.8059 47.7042 58.1309C47.9148 58.2777 48.1702 58.346 48.426 58.3241C48.6818 58.3021 48.9217 58.1911 49.1042 58.0105C49.8546 59.9005 51.6242 61.6729 53.6402 62.0929C54.1894 62.2238 54.7646 62.1947 55.2978 62.0089C56.2162 61.6533 56.5298 60.7993 56.8798 59.9649C57.3416 58.9176 57.66 57.8129 57.8262 56.6805C58.0278 55.1097 57.7982 53.4381 56.9246 52.1165C55.2866 55.1741 51.9434 55.4849 50.7282 55.3869Z" fill="#C77371"/>
<path d="M54.8496 57.1172L55.7064 59.1836L54.3232 59.2424L54.8496 57.1172Z" fill="#AD5755"/>
<path d="M54.8578 60.3007L53.119 59.6399C52.9703 59.893 52.913 60.1896 52.9566 60.4799C52.9806 60.6235 53.0397 60.7589 53.1286 60.8741C53.2175 60.9894 53.3335 61.081 53.4662 61.1407C53.6066 61.1914 53.7569 61.2087 53.9051 61.1912C54.0534 61.1737 54.1955 61.1219 54.3202 61.0399C54.5585 60.8424 54.7433 60.5882 54.8578 60.3007Z" fill="#AD5755"/>
<path opacity="0.3" d="M54.8578 60.3007L53.119 59.6399C52.9703 59.893 52.913 60.1896 52.9566 60.4799C52.9806 60.6235 53.0397 60.7589 53.1286 60.8741C53.2175 60.9894 53.3335 61.081 53.4662 61.1407C53.6066 61.1914 53.7569 61.2087 53.9051 61.1912C54.0534 61.1737 54.1955 61.1219 54.3202 61.0399C54.5585 60.8424 54.7433 60.5882 54.8578 60.3007Z" fill="black"/>
<path d="M52.8869 56.9128C52.8672 56.9879 52.8701 57.0672 52.8955 57.1406C52.9208 57.214 52.9674 57.2782 53.0293 57.3251C53.0912 57.372 53.1657 57.3994 53.2432 57.4039C53.3207 57.4085 53.3978 57.3899 53.4648 57.3505C53.5317 57.3111 53.5854 57.2527 53.6192 57.1828C53.6529 57.1128 53.665 57.0344 53.6541 56.9575C53.6432 56.8807 53.6097 56.8087 53.5579 56.7509C53.506 56.6931 53.4382 56.652 53.3629 56.6328C53.2627 56.6072 53.1564 56.6223 53.0673 56.6747C52.9781 56.7272 52.9133 56.8127 52.8869 56.9128Z" fill="#263238"/>
<path d="M56.1039 57.582C56.0877 57.6793 56.1089 57.7792 56.1631 57.8617C56.2174 57.9442 56.3007 58.0032 56.3966 58.0268C56.4924 58.0505 56.5936 58.0372 56.68 57.9895C56.7665 57.9418 56.8317 57.8633 56.8628 57.7696C56.879 57.6722 56.8578 57.5723 56.8036 57.4898C56.7493 57.4074 56.666 57.3484 56.5701 57.3247C56.4743 57.301 56.3731 57.3143 56.2867 57.362C56.2002 57.4097 56.135 57.4883 56.1039 57.582Z" fill="#263238"/>
<path d="M56.5938 55.7759L57.5262 56.2659C57.5509 56.1546 57.5411 56.0384 57.4981 55.9328C57.4551 55.8272 57.3809 55.7373 57.2854 55.6751C57.1722 55.6255 57.0474 55.6087 56.9251 55.6265C56.8029 55.6444 56.6881 55.6961 56.5938 55.7759Z" fill="#263238"/>
<path d="M53.7877 55.2215L52.7461 55.3811C52.7592 55.268 52.8064 55.1617 52.8814 55.0761C52.9564 54.9906 53.0557 54.93 53.1661 54.9023C53.2891 54.8924 53.4125 54.917 53.5223 54.9734C53.6321 55.0298 53.724 55.1157 53.7877 55.2215Z" fill="#263238"/>
<path d="M52.9427 60.2449C52.9345 60.3231 52.9345 60.4019 52.9427 60.4801C52.959 60.6043 53.0034 60.7231 53.0726 60.8276C53.1418 60.932 53.2339 61.0193 53.3419 61.0828C53.4499 61.1462 53.571 61.1842 53.6959 61.1938C53.8208 61.2034 53.9463 61.1843 54.0627 61.1381C54.0048 60.8869 53.8661 60.6617 53.6679 60.4969C53.4607 60.3351 53.2056 60.2464 52.9427 60.2449Z" fill="#AD5755"/>
<path d="M49.4367 87.5811C49.4331 87.6273 49.4378 87.6738 49.4507 87.7183C49.4649 87.7559 49.4838 87.7917 49.5067 87.8247C49.5336 87.8625 49.5646 87.8973 49.5991 87.9283C49.6419 87.967 49.6889 88.0008 49.7391 88.0291L57.3663 92.4643C57.4364 92.5039 57.5106 92.5358 57.5875 92.5595L57.6715 92.5847L57.7807 92.6127L57.9179 92.6351H57.9487C58.0103 92.6351 58.0747 92.6351 58.1363 92.6351H58.1671C58.2287 92.6351 58.2903 92.6351 58.3491 92.6351H58.3771C58.4387 92.6351 58.4975 92.6183 58.5563 92.6043H58.5871C58.6393 92.5923 58.6907 92.5774 58.7411 92.5595H58.7691C58.8274 92.5385 58.8836 92.5122 58.9371 92.4811L71.5371 85.2011C71.5871 85.1783 71.6349 85.1511 71.6799 85.1199C71.6926 85.1081 71.7039 85.095 71.7135 85.0807C71.7388 85.0593 71.7614 85.0348 71.7807 85.0079C71.7908 84.993 71.7993 84.977 71.806 84.9603C71.8203 84.9382 71.8324 84.9147 71.8423 84.8903C71.8437 84.8726 71.8437 84.8548 71.8423 84.8371C71.845 84.8138 71.845 84.7903 71.8423 84.7671V85.2123C71.845 85.2365 71.845 85.2609 71.8423 85.2851C71.8437 85.3019 71.8437 85.3187 71.8423 85.3355C71.8325 85.3608 71.8203 85.3852 71.806 85.4083C71.806 85.4083 71.8059 85.4391 71.7807 85.4559C71.7607 85.4822 71.7382 85.5066 71.7135 85.5287L71.6799 85.5679C71.6349 85.605 71.5872 85.6387 71.5371 85.6687L58.9371 92.9347C58.8831 92.9656 58.827 92.9928 58.7691 93.0159H58.7411L58.5871 93.0635H58.5563C58.4974 93.0781 58.4375 93.0884 58.3771 93.0943H58.3491C58.2886 93.0986 58.2277 93.0986 58.1671 93.0943H58.1363C58.0739 93.0985 58.0112 93.0985 57.9487 93.0943H57.9179L57.7807 93.0719L57.6715 93.0439L57.5875 93.0187C57.511 92.9929 57.4369 92.96 57.3663 92.9207L49.7391 88.4883C49.6889 88.46 49.6419 88.4262 49.5991 88.3875C49.5645 88.3555 49.5336 88.3198 49.5067 88.2811C49.4832 88.2484 49.4644 88.2126 49.4507 88.1747C49.4453 88.1413 49.4453 88.1073 49.4507 88.0739V87.5895L49.4367 87.5811Z" fill="#E0E0E0"/>
<path opacity="0.2" d="M49.4367 87.5811C49.4331 87.6273 49.4378 87.6738 49.4507 87.7183C49.4649 87.7559 49.4838 87.7917 49.5067 87.8247C49.5336 87.8625 49.5646 87.8973 49.5991 87.9283C49.6419 87.967 49.6889 88.0008 49.7391 88.0291L57.3663 92.4643C57.4364 92.5039 57.5106 92.5358 57.5875 92.5595L57.6715 92.5847L57.7807 92.6127L57.9179 92.6351H57.9487C58.0103 92.6351 58.0747 92.6351 58.1363 92.6351H58.1671C58.2287 92.6351 58.2903 92.6351 58.3491 92.6351H58.3771C58.4387 92.6351 58.4975 92.6183 58.5563 92.6043H58.5871C58.6393 92.5923 58.6907 92.5774 58.7411 92.5595H58.7691C58.8274 92.5385 58.8836 92.5122 58.9371 92.4811L71.5371 85.2011C71.5871 85.1783 71.6349 85.1511 71.6799 85.1199C71.6926 85.1081 71.7039 85.095 71.7135 85.0807C71.7388 85.0593 71.7614 85.0348 71.7807 85.0079C71.7908 84.993 71.7993 84.977 71.806 84.9603C71.8203 84.9382 71.8324 84.9147 71.8423 84.8903C71.8437 84.8726 71.8437 84.8548 71.8423 84.8371C71.845 84.8138 71.845 84.7903 71.8423 84.7671V85.2123C71.845 85.2365 71.845 85.2609 71.8423 85.2851C71.8437 85.3019 71.8437 85.3187 71.8423 85.3355C71.8325 85.3608 71.8203 85.3852 71.806 85.4083C71.806 85.4083 71.8059 85.4391 71.7807 85.4559C71.7607 85.4822 71.7382 85.5066 71.7135 85.5287L71.6799 85.5679C71.6349 85.605 71.5872 85.6387 71.5371 85.6687L58.9371 92.9347C58.8831 92.9656 58.827 92.9928 58.7691 93.0159H58.7411L58.5871 93.0635H58.5563C58.4974 93.0781 58.4375 93.0884 58.3771 93.0943H58.3491C58.2886 93.0986 58.2277 93.0986 58.1671 93.0943H58.1363C58.0739 93.0985 58.0112 93.0985 57.9487 93.0943H57.9179L57.7807 93.0719L57.6715 93.0439L57.5875 93.0187C57.511 92.9929 57.4369 92.96 57.3663 92.9207L49.7391 88.4883C49.6889 88.46 49.6419 88.4262 49.5991 88.3875C49.5645 88.3555 49.5336 88.3198 49.5067 88.2811C49.4832 88.2484 49.4644 88.2126 49.4507 88.1747C49.4453 88.1413 49.4453 88.1073 49.4507 88.0739V87.5895L49.4367 87.5811Z" fill="black"/>
<path d="M71.8453 84.8932C71.8354 84.9177 71.8232 84.9411 71.8089 84.9632C71.8022 84.9799 71.7937 84.9959 71.7837 85.0108C71.7643 85.0377 71.7418 85.0622 71.7165 85.0836C71.7068 85.0979 71.6955 85.1111 71.6829 85.1228C71.6386 85.1609 71.5908 85.1946 71.5401 85.2236L58.9401 92.5036C58.8865 92.5348 58.8303 92.561 58.7721 92.582H58.7441C58.6936 92.5999 58.6422 92.6149 58.5901 92.6268H58.5593C58.5005 92.6408 58.4417 92.6492 58.3801 92.6576H58.3521C58.2933 92.6576 58.2317 92.6576 58.1701 92.6576H58.1393C58.0777 92.6576 58.0133 92.6576 57.9517 92.6576H57.9209L57.7837 92.6352L57.6745 92.6072L57.5905 92.582C57.5135 92.5583 57.4394 92.5264 57.3693 92.4868L49.7421 88.0516C49.6918 88.0233 49.6449 87.9895 49.6021 87.9508C49.5675 87.9198 49.5366 87.8851 49.5097 87.8472C49.4867 87.8142 49.4679 87.7785 49.4537 87.7408C49.4408 87.6963 49.436 87.6498 49.4397 87.6036C49.4528 87.5105 49.4892 87.4222 49.5455 87.3468C49.6018 87.2715 49.6761 87.2115 49.7617 87.1724L62.3617 79.9064C62.6038 79.7821 62.8721 79.7173 63.1443 79.7173C63.4165 79.7173 63.6847 79.7821 63.9269 79.9064L71.5569 84.3388C71.6454 84.3798 71.7217 84.4433 71.7782 84.5228C71.8347 84.6024 71.8694 84.6953 71.8789 84.7924C71.8816 84.8157 71.8816 84.8392 71.8789 84.8624C71.8684 84.8734 71.8571 84.8837 71.8453 84.8932Z" fill="#E0E0E0"/>
<path d="M70.7986 84.77L58.5682 91.84L58.5206 91.8652H58.4954L58.4002 91.8932L58.333 91.9072H58.2854C58.2453 91.9093 58.2051 91.9093 58.165 91.9072H58.039L57.9578 91.8932L57.8598 91.8652C57.8311 91.8557 57.8031 91.8445 57.7758 91.8316L53.8418 89.544L66.4726 82.25L70.7986 84.77Z" fill="#E0E0E0"/>
<path d="M59.1642 82.8268L61.4658 84.182C61.5007 84.2025 61.5295 84.2318 61.5496 84.2669C61.5697 84.302 61.5802 84.3418 61.5802 84.3822C61.5802 84.4226 61.5697 84.4624 61.5496 84.4975C61.5295 84.5326 61.5007 84.5619 61.4658 84.5824L58.0246 86.5676C57.9665 86.6018 57.9003 86.6199 57.8328 86.6199C57.7654 86.6199 57.6992 86.6018 57.641 86.5676L55.3394 85.2152C55.304 85.1949 55.2745 85.1655 55.254 85.1301C55.2335 85.0947 55.2227 85.0545 55.2227 85.0136C55.2227 84.9727 55.2335 84.9325 55.254 84.8971C55.2745 84.8617 55.304 84.8324 55.3394 84.812L58.7778 82.8268C58.8364 82.7923 58.9031 82.7742 58.971 82.7742C59.039 82.7742 59.1057 82.7923 59.1642 82.8268Z" fill="#E0E0E0"/>
<path opacity="0.4" d="M70.7986 84.77L58.5682 91.84L58.5206 91.8652H58.4954L58.4002 91.8932L58.333 91.9072H58.2854C58.2453 91.9093 58.2051 91.9093 58.165 91.9072H58.039L57.9578 91.8932L57.8598 91.8652C57.8311 91.8557 57.8031 91.8445 57.7758 91.8316L53.8418 89.544L66.4726 82.25L70.7986 84.77Z" fill="black"/>
<path opacity="0.4" d="M59.1642 82.8268L61.4658 84.182C61.5007 84.2025 61.5295 84.2318 61.5496 84.2669C61.5697 84.302 61.5802 84.3418 61.5802 84.3822C61.5802 84.4226 61.5697 84.4624 61.5496 84.4975C61.5295 84.5326 61.5007 84.5619 61.4658 84.5824L58.0246 86.5676C57.9665 86.6018 57.9003 86.6199 57.8328 86.6199C57.7654 86.6199 57.6992 86.6018 57.641 86.5676L55.3394 85.2152C55.304 85.1949 55.2745 85.1655 55.254 85.1301C55.2335 85.0947 55.2227 85.0545 55.2227 85.0136C55.2227 84.9727 55.2335 84.9325 55.254 84.8971C55.2745 84.8617 55.304 84.8324 55.3394 84.812L58.7778 82.8268C58.8364 82.7923 58.9031 82.7742 58.971 82.7742C59.039 82.7742 59.1057 82.7923 59.1642 82.8268Z" fill="black"/>
<path d="M58.2399 92.0415L59.5419 83.7535C59.5775 83.5292 59.6626 83.3156 59.7909 83.1281C59.9192 82.9407 60.0877 82.7842 60.2839 82.6699L72.9595 75.3003C73.01 75.2708 73.0666 75.2535 73.1249 75.2496C73.1832 75.2457 73.2416 75.2554 73.2955 75.2779L73.5979 75.4263L73.4971 75.4655C73.5302 75.5352 73.541 75.6134 73.5279 75.6895L72.2399 83.9775C72.2045 84.2019 72.1196 84.4156 71.9912 84.603C71.8629 84.7905 71.6944 84.947 71.4979 85.0611L58.7999 92.4307C58.7741 92.4447 58.7469 92.456 58.7187 92.4643V92.5847L58.4387 92.4419C58.3673 92.405 58.3096 92.3462 58.2738 92.2742C58.2381 92.2022 58.2262 92.1207 58.2399 92.0415Z" fill="#E0E0E0"/>
<path opacity="0.3" d="M58.2399 92.0415L59.5419 83.7535C59.5775 83.5292 59.6626 83.3156 59.7909 83.1281C59.9192 82.9407 60.0877 82.7842 60.2839 82.6699L72.9595 75.3003C73.01 75.2708 73.0666 75.2535 73.1249 75.2496C73.1832 75.2457 73.2416 75.2554 73.2955 75.2779L73.5979 75.4263L73.4971 75.4655C73.5302 75.5352 73.541 75.6134 73.5279 75.6895L72.2399 83.9775C72.2045 84.2019 72.1196 84.4156 71.9912 84.603C71.8629 84.7905 71.6944 84.947 71.4979 85.0611L58.7999 92.4307C58.7741 92.4447 58.7469 92.456 58.7187 92.4643V92.5847L58.4387 92.4419C58.3673 92.405 58.3096 92.3462 58.2738 92.2742C58.2381 92.2022 58.2262 92.1207 58.2399 92.0415Z" fill="black"/>
<path d="M60.5423 82.7959L73.2178 75.4291C73.28 75.395 73.3504 75.3789 73.4211 75.3826C73.4919 75.3863 73.5602 75.4097 73.6184 75.4502C73.6766 75.4906 73.7224 75.5465 73.7505 75.6115C73.7787 75.6766 73.7882 75.7482 73.7778 75.8183L72.4759 84.1035C72.4408 84.3284 72.3561 84.5426 72.2277 84.7306C72.0993 84.9185 71.9306 85.0754 71.7339 85.1899L59.0807 92.5567C59.0185 92.5908 58.9481 92.6069 58.8774 92.6031C58.8066 92.5994 58.7383 92.576 58.6801 92.5356C58.6219 92.4951 58.5761 92.4392 58.548 92.3742C58.5198 92.3092 58.5103 92.2376 58.5207 92.1675L59.8227 83.8823C59.8557 83.6595 59.9373 83.4468 60.0616 83.259C60.186 83.0713 60.3501 82.9132 60.5423 82.7959Z" fill="#E0E0E0"/>
<path d="M66.6847 83.0116C66.3634 83.2128 66.0864 83.477 65.8703 83.7884C65.6542 84.0998 65.5035 84.4519 65.4275 84.8232C65.3435 85.47 65.7719 85.7108 66.3851 85.3552C66.7064 85.1541 66.9835 84.8898 67.1996 84.5784C67.4157 84.267 67.5663 83.9149 67.6423 83.5436C67.7263 82.8968 67.2951 82.6588 66.6847 83.0116Z" fill="white"/>
<path d="M37.1309 45.3068C35.0113 44.268 33.1297 46.4884 33.7709 47.6364C34.4121 48.7844 38.5197 47.4936 37.1309 45.3068Z" fill="#7F78D8"/>
<path opacity="0.3" d="M37.1309 45.3068C35.0113 44.268 33.1297 46.4884 33.7709 47.6364C34.4121 48.7844 38.5197 47.4936 37.1309 45.3068Z" fill="black"/>
<path d="M31.8613 41.9635C32.2645 43.6043 32.8637 44.3967 34.0229 45.3095L36.1565 44.3183L35.3669 40.4851L34.8293 39.9727L31.8613 41.9635Z" fill="#AD5755"/>
<path d="M34.5295 38.8165C34.4447 38.7536 34.346 38.712 34.2417 38.6953C34.1375 38.6786 34.0307 38.6872 33.9305 38.7204C33.8303 38.7537 33.7395 38.8105 33.6659 38.8862C33.5923 38.9619 33.5379 39.0542 33.5075 39.1553C33.4195 39.0849 33.3111 39.045 33.1985 39.0415C33.086 39.0379 32.9753 39.071 32.8831 39.1357C32.7881 39.2048 32.7173 39.302 32.6807 39.4135C32.644 39.5251 32.6433 39.6453 32.6787 39.7573C32.627 39.7063 32.5611 39.6721 32.4897 39.6591C32.4183 39.6461 32.3446 39.655 32.2783 39.6845C32.1498 39.75 32.0501 39.8607 31.9983 39.9953C31.9395 40.1307 31.8972 40.2726 31.8723 40.4181C31.7947 40.3883 31.7101 40.3814 31.6287 40.3983C31.5473 40.4152 31.4725 40.4551 31.4131 40.5133C31.356 40.5733 31.317 40.6483 31.3006 40.7296C31.2843 40.8108 31.2912 40.895 31.3207 40.9725C31.4469 41.282 31.6065 41.5768 31.7967 41.8517C31.8445 41.9533 31.9127 42.0439 31.997 42.1181C32.0812 42.1923 32.1799 42.2484 32.2867 42.2829C32.3659 42.2963 32.4473 42.2871 32.5216 42.2564C32.5959 42.2257 32.66 42.1747 32.7067 42.1093C32.7521 42.0426 32.7779 41.9645 32.7814 41.8839C32.7849 41.8033 32.7658 41.7233 32.7263 41.6529C32.8179 41.7605 32.9417 41.8357 33.0793 41.8675C33.217 41.8992 33.3612 41.8858 33.4907 41.8293C33.6 41.7572 33.6805 41.6491 33.7184 41.5238C33.7562 41.3984 33.749 41.2638 33.6979 41.1433C33.7382 41.2232 33.8018 41.289 33.8803 41.3319C33.9588 41.3749 34.0485 41.3931 34.1375 41.3841C34.2243 41.3701 34.3061 41.3339 34.3748 41.2789C34.4435 41.2239 34.4968 41.1521 34.5295 41.0705C34.5605 40.9885 34.5745 40.901 34.5706 40.8134C34.5668 40.7258 34.5452 40.6399 34.5071 40.5609C34.5339 40.6367 34.58 40.7043 34.6409 40.7568C34.7018 40.8094 34.7753 40.8451 34.8543 40.8605C34.9307 40.8764 35.0101 40.871 35.0837 40.8448C35.1573 40.8186 35.2223 40.7727 35.2715 40.7121C35.3376 40.5994 35.3746 40.472 35.379 40.3415C35.3834 40.2109 35.3551 40.0813 35.2967 39.9645C35.1779 39.5062 34.9075 39.1016 34.5295 38.8165Z" fill="#C77371"/>
<path d="M37.2401 46.5051L36.1481 44.3183L36.5765 42.8175C36.6549 42.5442 36.676 42.2576 36.6384 41.9757C36.6008 41.6939 36.5054 41.4228 36.3581 41.1795L36.1005 40.7483C36.0298 40.6261 35.9155 40.5351 35.7805 40.4935C35.6455 40.452 35.4997 40.463 35.3725 40.5243L33.3369 41.4567V41.4847C33.3903 41.6272 33.4722 41.7574 33.5776 41.8671C33.683 41.9769 33.8096 42.0641 33.9498 42.1233C34.09 42.1825 34.2408 42.2126 34.393 42.2116C34.5451 42.2106 34.6955 42.1786 34.8349 42.1175C33.4825 43.1731 33.4349 44.0607 33.9949 45.3095C34.5549 46.5583 35.4257 48.5351 35.4257 48.5351L37.2401 46.5051Z" fill="#C77371"/>
<path d="M47.3981 61.2752L37.1305 45.3152C36.6769 47.8548 33.7705 47.6448 33.7705 47.6448L45.2953 67.998C46.8325 70.56 52.0517 68.04 47.3981 61.2752Z" fill="#7F78D8"/>
<path opacity="0.3" d="M47.3981 61.2752L37.1305 45.3152C36.6769 47.8548 33.7705 47.6448 33.7705 47.6448L45.2953 67.998C46.8325 70.56 52.0517 68.04 47.3981 61.2752Z" fill="white"/>
<path opacity="0.2" d="M54.1547 72.5201C53.4514 72.9634 52.6043 73.1188 51.7893 72.9541C50.9744 72.7893 50.2542 72.317 49.7783 71.6353C49.8315 72.6769 50.4699 73.6793 51.4919 73.8977C52.5139 74.1161 53.6815 73.4441 54.1547 72.5201Z" fill="black"/>
</svg>
