<svg width="140" height="140" viewBox="0 0 140 140" fill="none" xmlns="http://www.w3.org/2000/svg">
<path d="M140 107.072H0V107.141H140V107.072Z" fill="#EBEBEB"/>
<path d="M38.5451 108.979H29.2715V109.048H38.5451V108.979Z" fill="#EBEBEB"/>
<path d="M59.3289 111.543H47.9189V111.613H59.3289V111.543Z" fill="#EBEBEB"/>
<path d="M28.9909 110.667H14.6885V110.736H28.9909V110.667Z" fill="#EBEBEB"/>
<path d="M125.972 109.449H99.8926V109.519H125.972V109.449Z" fill="#EBEBEB"/>
<path d="M97.4003 109.449H95.6279V109.519H97.4003V109.449Z" fill="#EBEBEB"/>
<path d="M89.4435 110.631H77.6191V110.7H89.4435V110.631Z" fill="#EBEBEB"/>
<path d="M66.3604 94.5839H12.2952C11.8717 94.5832 11.4657 94.4144 11.1665 94.1146C10.8673 93.8149 10.6992 93.4086 10.6992 92.9851V16.9847C10.7029 16.5636 10.8726 16.1609 11.1714 15.8642C11.4703 15.5675 11.8741 15.4006 12.2952 15.3999H66.3604C66.7845 15.3999 67.1911 15.5683 67.4909 15.8682C67.7908 16.168 67.9592 16.5747 67.9592 16.9987V92.9851C67.9592 93.4091 67.7908 93.8158 67.4909 94.1156C67.1911 94.4155 66.7845 94.5839 66.3604 94.5839ZM12.2952 15.4559C11.8902 15.4566 11.5021 15.618 11.216 15.9047C10.9299 16.1913 10.7692 16.5797 10.7692 16.9847V92.9851C10.7692 93.3901 10.9299 93.7785 11.216 94.0651C11.5021 94.3518 11.8902 94.5131 12.2952 94.5139H66.3604C66.7657 94.5132 67.1541 94.3518 67.4406 94.0653C67.7272 93.7788 67.8885 93.3903 67.8892 92.9851V16.9847C67.8885 16.5795 67.7272 16.191 67.4406 15.9045C67.1541 15.6179 66.7657 15.4566 66.3604 15.4559H12.2952Z" fill="#EBEBEB"/>
<path d="M126.927 94.5839H72.8586C72.4348 94.5832 72.0285 94.4145 71.7289 94.1148C71.4292 93.8151 71.2605 93.4089 71.2598 92.9851V16.9847C71.2642 16.5633 71.4345 16.1607 71.7338 15.864C72.033 15.5674 72.4372 15.4006 72.8586 15.3999H126.927C127.347 15.4014 127.75 15.5685 128.049 15.8652C128.347 16.1618 128.516 16.5641 128.52 16.9847V92.9851C128.52 93.4081 128.352 93.814 128.053 94.1136C127.755 94.4133 127.35 94.5824 126.927 94.5839ZM72.8586 15.4559C72.4533 15.4566 72.0649 15.6179 71.7784 15.9045C71.4918 16.191 71.3305 16.5795 71.3298 16.9847V92.9851C71.3305 93.3903 71.4918 93.7788 71.7784 94.0653C72.0649 94.3518 72.4533 94.5132 72.8586 94.5139H126.927C127.332 94.5132 127.72 94.3518 128.007 94.0653C128.293 93.7788 128.455 93.3903 128.455 92.9851V16.9847C128.455 16.5795 128.293 16.191 128.007 15.9045C127.72 15.6179 127.332 15.4566 126.927 15.4559H72.8586Z" fill="#EBEBEB"/>
<path d="M64.5088 107.072V50.7415H41.8988V107.072H64.5088Z" fill="#F0F0F0"/>
<path d="M63.2656 68.7371V52.1555H43.1392V68.7371H63.2656Z" fill="#E6E6E6"/>
<path d="M63.2686 86.8084V70.2268H43.1422V86.8084H63.2686Z" fill="#E6E6E6"/>
<path d="M63.2686 104.877V88.2952H43.1422V104.877H63.2686Z" fill="#E6E6E6"/>
<path d="M63.2686 68.7371V52.1555H55.353V68.7371H63.2686Z" fill="#E0E0E0"/>
<path d="M63.2656 86.8055V70.2239H55.35V86.8055H63.2656Z" fill="#E0E0E0"/>
<path d="M51.8084 80.1836H46.3232V86.8084H51.8084V80.1836Z" fill="#FAFAFA"/>
<path d="M44.0076 86.8054H46.3232V80.1806H44.0076V86.8054Z" fill="#F0F0F0"/>
<path d="M60.6678 80.1836H55.1826V86.8084H60.6678V80.1836Z" fill="#FAFAFA"/>
<path d="M52.8699 86.8054H55.1855V80.1806H52.8699V86.8054Z" fill="#F0F0F0"/>
<path d="M56.3358 73.5586H50.8506V80.1834H56.3358V73.5586Z" fill="#FAFAFA"/>
<path d="M48.535 80.1836H50.8506V73.5588H48.535V80.1836Z" fill="#F0F0F0"/>
<path d="M63.2686 104.877V88.2952H55.353V104.877H63.2686Z" fill="#E0E0E0"/>
<path d="M41.8994 107.072V50.7415H35.759V107.072H41.8994Z" fill="#F5F5F5"/>
<path d="M61.9022 90.6863H45.5586V104.877H61.9022V90.6863Z" fill="#F0F0F0"/>
<path d="M43.1423 104.874H45.5615V90.6836H43.1423V104.874Z" fill="#E0E0E0"/>
<path d="M61.9022 54.5466H45.5586V68.737H61.9022V54.5466Z" fill="#F0F0F0"/>
<path d="M43.1423 68.7344H45.5615V54.544H43.1423V68.7344Z" fill="#E0E0E0"/>
<path d="M119.28 107.072V24.5476L80.3267 24.5476V107.072H119.28Z" fill="#FAFAFA"/>
<path d="M80.3262 107.072V24.5476H80.1806V107.072H80.3262Z" fill="#F0F0F0"/>
<path d="M114.94 27.2551H83.1436V107.072H114.94V27.2551Z" fill="#E6E6E6"/>
<path d="M116.642 27.2551H83.9385V107.072H116.642V27.2551Z" fill="#F0F0F0"/>
<path d="M114.26 67.8271V68.8323L115.265 67.8271H114.26Z" fill="#E0E0E0"/>
<path d="M114.26 104.689V29.6406H86.3214V104.689H114.26Z" fill="#FAFAFA"/>
<path d="M109.066 67.4182C108.861 67.4182 108.664 67.4996 108.519 67.6446C108.374 67.7895 108.293 67.9861 108.293 68.191C108.293 68.396 108.374 68.5925 108.519 68.7375C108.664 68.8824 108.861 68.9638 109.066 68.9638H113.96V67.4182H109.066Z" fill="#F5F5F5"/>
<path d="M92.4502 104.689L100.976 29.6406H106.719L98.193 104.689H92.4502Z" fill="white"/>
<path d="M99.4277 104.689L107.954 29.6406H110.194L101.668 104.689H99.4277Z" fill="white"/>
<path d="M114.26 104.686V29.6379H113.957V104.686H114.26Z" fill="#E6E6E6"/>
<path d="M114.998 67.9362H110.107C109.902 67.9355 109.706 67.8538 109.561 67.7091C109.416 67.5643 109.335 67.3682 109.334 67.1634C109.335 66.9587 109.416 66.7626 109.561 66.6178C109.706 66.473 109.902 66.3914 110.107 66.3906H114.998C115.203 66.3906 115.4 66.472 115.545 66.617C115.69 66.7619 115.771 66.9585 115.771 67.1634C115.771 67.3684 115.69 67.5649 115.545 67.7099C115.4 67.8548 115.203 67.9362 114.998 67.9362Z" fill="#EBEBEB"/>
<path d="M31.6563 34.1179H17.9111V55.9831H31.6563V34.1179Z" fill="#E0E0E0"/>
<path d="M32.4825 34.1179H18.2725V55.9831H32.4825V34.1179Z" fill="#F5F5F5"/>
<path d="M19.4658 35.7112V54.3872H31.2958V35.7112H19.4658Z" fill="white"/>
<path d="M51.0636 23.5674H37.3184V45.4326H51.0636V23.5674Z" fill="#E0E0E0"/>
<path d="M51.8926 23.5674H37.6826V45.4326H51.8926V23.5674Z" fill="#F5F5F5"/>
<path d="M38.8721 25.1636V43.8396H50.7021V25.1636H38.8721Z" fill="white"/>
<path d="M112.053 62.7956L114.013 85.498C114.17 87.346 113.041 88.9672 111.493 89.0988L68.4122 92.7948C66.8722 92.9292 65.4806 91.5236 65.3322 89.6784L63.3722 66.9732C63.3333 66.547 63.3665 66.1172 63.4702 65.702C63.7782 64.4336 64.7134 63.462 65.8838 63.3752L108.965 59.6764C110.132 59.5756 111.205 60.3624 111.739 61.5552C111.912 61.9485 112.018 62.3676 112.053 62.7956Z" fill="#7F78D8"/>
<path opacity="0.1" d="M112.053 62.7956L114.013 85.498C114.17 87.346 113.041 88.9672 111.493 89.0988L68.4122 92.7948C66.8722 92.9292 65.4806 91.5236 65.3322 89.6784L63.3722 66.9732C63.3333 66.547 63.3665 66.1172 63.4702 65.702C63.7782 64.4336 64.7134 63.462 65.8838 63.3752L108.965 59.6764C110.132 59.5756 111.205 60.3624 111.739 61.5552C111.912 61.9485 112.018 62.3676 112.053 62.7956Z" fill="black"/>
<path d="M117.167 76.1786L116.861 76.2156L116.985 77.2385L117.291 77.2016L117.167 76.1786Z" fill="#7F78D8"/>
<path d="M116.571 71.2397L116.266 71.2766L116.726 75.0877L117.032 75.0507L116.571 71.2397Z" fill="#7F78D8"/>
<path d="M113.982 58.7357L116.799 82.0205C117.026 83.9133 115.922 85.6213 114.343 85.8117L70.1619 91.1569C68.5827 91.3473 67.1015 89.9529 66.8719 88.0573L64.0551 64.7753C64.0015 64.3375 64.0205 63.8938 64.1111 63.4621C64.3911 62.1489 65.3095 61.1269 66.5107 60.9813L110.692 55.639C111.893 55.4934 113.036 56.2633 113.615 57.4729C113.806 57.8708 113.93 58.2975 113.982 58.7357Z" fill="#7F78D8"/>
<path opacity="0.1" d="M113.616 57.4729L93.5761 70.9661C92.5954 71.6365 91.4677 72.061 90.2883 72.2038C89.1089 72.3466 87.9125 72.2035 86.8001 71.7866L64.1201 63.4621C64.4001 62.1489 65.3185 61.1269 66.5197 60.9813L110.701 55.639C111.894 55.4934 113.036 56.2633 113.616 57.4729Z" fill="black"/>
<path d="M106.139 62.5045L100.383 66.3797L98.4982 67.6509L93.5758 70.9661C92.6205 71.6216 91.524 72.0428 90.3755 72.1956C89.2269 72.3483 88.0586 72.2283 86.965 71.8453L86.7886 71.7865L84.0278 70.7729L77.8118 68.4909L74.9054 67.4241L71.6126 66.2145L71.3746 60.3933L70.8398 47.4573L96.1322 46.4297L105.773 53.7349L105.873 56.2185L106.139 62.5045Z" fill="#7F78D8"/>
<path opacity="0.7" d="M106.139 62.5045L100.383 66.3797L98.4982 67.6509L93.5758 70.9661C92.6205 71.6216 91.524 72.0428 90.3755 72.1956C89.2269 72.3483 88.0586 72.2283 86.965 71.8453L86.7886 71.7865L84.0278 70.7729L77.8118 68.4909L74.9054 67.4241L71.6126 66.2145L71.3746 60.3933L70.8398 47.4573L96.1322 46.4297L105.773 53.7349L105.873 56.2185L106.139 62.5045Z" fill="#FAFAFA"/>
<g opacity="0.9">
<path d="M102.575 56.3079L74.5751 57.4447C74.4189 57.4509 74.2665 57.3958 74.1504 57.2912C74.0342 57.1866 73.9636 57.0407 73.9535 56.8847C73.9481 56.729 74.0035 56.5773 74.108 56.4618C74.2126 56.3463 74.358 56.276 74.5135 56.2659L102.513 55.1291C102.67 55.123 102.822 55.1781 102.938 55.2827C103.054 55.3873 103.125 55.5332 103.135 55.6891C103.141 55.845 103.086 55.9971 102.981 56.1128C102.877 56.2285 102.731 56.2985 102.575 56.3079Z" fill="white"/>
<path d="M102.724 60.0291L74.7235 61.1659C74.5673 61.1721 74.4149 61.117 74.2988 61.0124C74.1827 60.9078 74.112 60.7619 74.1019 60.6059C74.0965 60.4499 74.1518 60.2979 74.2563 60.182C74.3608 60.066 74.5062 59.9951 74.6619 59.9843L102.662 58.8475C102.818 58.8421 102.97 58.8974 103.086 59.0019C103.202 59.1064 103.273 59.2518 103.284 59.4075C103.288 59.5633 103.233 59.715 103.128 59.8308C103.024 59.9466 102.879 60.0177 102.724 60.0291Z" fill="white"/>
<path d="M102.875 63.7476L74.875 64.8844C74.7188 64.8906 74.5664 64.8355 74.4503 64.7309C74.3341 64.6263 74.2635 64.4804 74.2534 64.3244C74.2472 64.1685 74.3024 64.0164 74.4071 63.9008C74.5118 63.7851 74.6577 63.715 74.8134 63.7056L102.813 62.5688C102.969 62.5627 103.121 62.6179 103.237 62.7226C103.353 62.8272 103.423 62.9731 103.432 63.1288C103.438 63.2843 103.384 63.436 103.279 63.5516C103.175 63.6672 103.03 63.7375 102.875 63.7476Z" fill="white"/>
<path d="M100.382 66.3796L98.4981 67.6508L77.8117 68.4908L74.9053 67.424C74.9295 67.4211 74.9539 67.4211 74.9781 67.424L100.382 66.3796Z" fill="white"/>
<path d="M92.7191 71.0136V71.036C92.7194 71.1884 92.6617 71.3352 92.5576 71.4465C92.4536 71.5578 92.3111 71.6253 92.1591 71.6352L86.9763 71.8452L86.7999 71.7865L84.0391 70.7728L92.1115 70.4425C92.2671 70.4401 92.4175 70.4984 92.5309 70.605C92.6443 70.7116 92.7118 70.8582 92.7191 71.0136Z" fill="white"/>
</g>
<path opacity="0.1" d="M105.784 53.7349L99.0864 53.4465L96.1436 46.4297L105.784 53.7349Z" fill="#263238"/>
<path d="M105.784 53.7349L99.2852 52.6233L96.1436 46.4297L105.784 53.7349Z" fill="#7F78D8"/>
<path d="M118.666 26.5804C118.666 32.2756 112.425 37.8728 111.49 37.8728C110.555 37.8728 104.313 32.2728 104.313 26.5804C104.313 22.764 107.525 19.6672 111.49 19.6672C115.455 19.6672 118.666 22.764 118.666 26.5804Z" fill="#7F78D8"/>
<path opacity="0.1" d="M110.157 25.1609C108.858 26.5861 107.094 27.0957 106.217 26.2809C105.341 25.4661 105.683 23.6797 106.979 22.2545C108.275 20.8293 110.042 20.3197 110.921 21.1177C111.801 21.9157 111.456 23.7357 110.157 25.1609Z" fill="white"/>
<path opacity="0.1" d="M106.33 30.8979C106.159 30.4723 106.204 30.0579 106.431 29.9627C106.658 29.8675 106.991 30.1419 107.151 30.5675C107.31 30.9931 107.277 31.4075 107.05 31.4999C106.823 31.5923 106.501 31.3207 106.33 30.8979Z" fill="white"/>
<path d="M111.183 55.7928C111.152 55.7921 111.124 55.7798 111.102 55.7584C111.081 55.737 111.069 55.7082 111.068 55.678C111.059 55.3003 111.173 54.9301 111.393 54.6224C111.581 54.3467 111.681 54.0208 111.681 53.6872C111.681 53.3536 111.581 53.0277 111.393 52.752C111.181 52.4406 111.068 52.0729 111.068 51.6964C111.068 51.32 111.181 50.9522 111.393 50.6408C111.581 50.3657 111.681 50.0402 111.681 49.707C111.681 49.3738 111.581 49.0483 111.393 48.7732C111.181 48.4624 111.068 48.0951 111.068 47.719C111.068 47.343 111.181 46.9757 111.393 46.6648C111.581 46.3897 111.681 46.0642 111.681 45.731C111.681 45.3978 111.581 45.0723 111.393 44.7972C111.181 44.4864 111.068 44.1191 111.068 43.743C111.068 43.367 111.181 42.9997 111.393 42.6888C111.581 42.4137 111.681 42.0882 111.681 41.755C111.681 41.4218 111.581 41.0963 111.393 40.8212C111.181 40.5104 111.068 40.143 111.068 39.767C111.068 39.391 111.181 39.0236 111.393 38.7128C111.584 38.4405 111.683 38.1133 111.673 37.7804C111.677 37.7527 111.691 37.7274 111.712 37.7092C111.734 37.6909 111.761 37.6809 111.789 37.6809C111.817 37.6809 111.844 37.6909 111.865 37.7092C111.887 37.7274 111.901 37.7527 111.905 37.7804C111.913 38.1572 111.799 38.5264 111.58 38.8332C111.389 39.1069 111.291 39.4347 111.3 39.7684C111.29 40.1013 111.389 40.4285 111.58 40.7008C111.792 41.0116 111.905 41.379 111.905 41.755C111.905 42.1311 111.792 42.4984 111.58 42.8092C111.391 43.0837 111.289 43.4094 111.289 43.743C111.289 44.0766 111.391 44.4023 111.58 44.6768C111.792 44.9876 111.905 45.355 111.905 45.731C111.905 46.1071 111.792 46.4744 111.58 46.7852C111.391 47.0597 111.289 47.3854 111.289 47.719C111.289 48.0526 111.391 48.3783 111.58 48.6528C111.792 48.9636 111.905 49.331 111.905 49.707C111.905 50.083 111.792 50.4504 111.58 50.7612C111.39 51.0362 111.289 51.3623 111.289 51.6964C111.289 52.0305 111.39 52.3567 111.58 52.6316C111.792 52.943 111.905 53.3108 111.905 53.6872C111.905 54.0637 111.792 54.4314 111.58 54.7428C111.388 55.016 111.29 55.3442 111.3 55.678C111.3 55.6933 111.297 55.7085 111.291 55.7226C111.285 55.7367 111.277 55.7495 111.266 55.7602C111.255 55.7709 111.242 55.7793 111.227 55.7849C111.213 55.7905 111.198 55.7932 111.183 55.7928Z" fill="#263238"/>
<path d="M111.491 37.604C111.269 37.604 109.811 38.92 109.811 40.2584H113.176C113.176 38.92 111.72 37.604 111.491 37.604Z" fill="#7F78D8"/>
<path d="M111.82 37.6489H111.16C111.105 37.6489 111.062 37.6928 111.062 37.7469V37.8169C111.062 37.871 111.105 37.9149 111.16 37.9149H111.82C111.874 37.9149 111.918 37.871 111.918 37.8169V37.7469C111.918 37.6928 111.874 37.6489 111.82 37.6489Z" fill="#263238"/>
<path d="M73.6399 31.9033C73.6399 37.5957 67.3987 43.1929 66.4635 43.1929C65.5283 43.1929 59.2871 37.5929 59.2871 31.9033C59.2871 28.0841 62.4987 24.9873 66.4635 24.9873C70.4283 24.9873 73.6399 28.0841 73.6399 31.9033Z" fill="#263238"/>
<path opacity="0.1" d="M65.3 30.7142C66.5986 29.2886 66.9404 27.4855 66.0636 26.6867C65.1867 25.888 63.4232 26.3962 62.1247 27.8218C60.8261 29.2474 60.4843 31.0506 61.3611 31.8493C62.238 32.648 64.0015 32.1398 65.3 30.7142Z" fill="white"/>
<path opacity="0.1" d="M61.4709 36.4504C61.3001 36.0248 61.3449 35.6104 61.5717 35.5152C61.7985 35.42 62.1317 35.6944 62.2913 36.12C62.4509 36.5456 62.4173 36.96 62.1905 37.0552C61.9637 37.1504 61.6417 36.876 61.4709 36.4504Z" fill="white"/>
<path d="M66.1445 61.1128C66.1141 61.1128 66.0849 61.1007 66.0633 61.0792C66.0418 61.0576 66.0297 61.0284 66.0297 60.998C66.0214 60.6203 66.1353 60.2501 66.3545 59.9424C66.5424 59.6667 66.6429 59.3408 66.6429 59.0072C66.6429 58.6736 66.5424 58.3477 66.3545 58.072C66.143 57.7606 66.0299 57.3928 66.0299 57.0164C66.0299 56.64 66.143 56.2722 66.3545 55.9608C66.5462 55.6884 66.6445 55.3613 66.6345 55.0284C66.6439 54.6947 66.5457 54.3668 66.3545 54.0932C66.1429 53.7824 66.0297 53.415 66.0297 53.039C66.0297 52.663 66.1429 52.2956 66.3545 51.9848C66.5462 51.7124 66.6445 51.3853 66.6345 51.0524C66.6439 50.7187 66.5457 50.3908 66.3545 50.1172C66.1429 49.8064 66.0297 49.439 66.0297 49.063C66.0297 48.687 66.1429 48.3196 66.3545 48.0088C66.5423 47.7341 66.6428 47.4091 66.6428 47.0764C66.6428 46.7437 66.5423 46.4187 66.3545 46.144C66.1429 45.8332 66.0297 45.4658 66.0297 45.0898C66.0297 44.7138 66.1429 44.3464 66.3545 44.0356C66.5457 43.7619 66.6439 43.4341 66.6345 43.1004C66.6352 43.0702 66.6476 43.0414 66.6689 43.02C66.6903 42.9986 66.7191 42.9863 66.7493 42.9856C66.7798 42.9856 66.809 42.9977 66.8305 43.0192C66.852 43.0407 66.8641 43.0699 66.8641 43.1004C66.8729 43.4777 66.76 43.8478 66.5421 44.156C66.3525 44.4299 66.2508 44.7552 66.2508 45.0884C66.2508 45.4216 66.3525 45.7469 66.5421 46.0208C66.7519 46.3323 66.864 46.6994 66.864 47.075C66.864 47.4506 66.7519 47.8177 66.5421 48.1292C66.3509 48.4028 66.2528 48.7307 66.2621 49.0644C66.2522 49.3973 66.3504 49.7244 66.5421 49.9968C66.7519 50.3083 66.864 50.6754 66.864 51.051C66.864 51.4266 66.7519 51.7937 66.5421 52.1052C66.3509 52.3788 66.2528 52.7067 66.2621 53.0404C66.2522 53.3733 66.3504 53.7004 66.5421 53.9728C66.7519 54.2843 66.864 54.6514 66.864 55.027C66.864 55.4026 66.7519 55.7697 66.5421 56.0812C66.3524 56.3561 66.2507 56.6823 66.2507 57.0164C66.2507 57.3505 66.3524 57.6766 66.5421 57.9516C66.7522 58.2636 66.8644 58.6311 66.8644 59.0072C66.8644 59.3833 66.7522 59.7508 66.5421 60.0628C66.3506 60.3363 66.2524 60.6643 66.2621 60.998C66.2621 61.0133 66.2591 61.0285 66.2531 61.0426C66.2472 61.0567 66.2385 61.0695 66.2275 61.0802C66.2166 61.0909 66.2036 61.0993 66.1893 61.1049C66.1751 61.1105 66.1598 61.1132 66.1445 61.1128Z" fill="#7F78D8"/>
<path d="M66.4525 42.9268C66.2313 42.9268 64.7725 44.24 64.7725 45.5784H68.1325C68.1381 44.24 66.6709 42.9268 66.4525 42.9268Z" fill="#263238"/>
<path d="M66.7822 42.9688H66.1214C66.0673 42.9688 66.0234 43.0126 66.0234 43.0667V43.1367C66.0234 43.1909 66.0673 43.2347 66.1214 43.2347H66.7822C66.8364 43.2347 66.8802 43.1909 66.8802 43.1367V43.0667C66.8802 43.0126 66.8364 42.9688 66.7822 42.9688Z" fill="#7F78D8"/>
<path d="M115.376 60.9911C117.072 59.4337 117.184 56.7963 115.627 55.1003C114.069 53.4043 111.432 53.2919 109.736 54.8493C108.04 56.4067 107.928 59.0441 109.485 60.7401C111.042 62.4361 113.68 62.5485 115.376 60.9911Z" fill="#DE5753"/>
<path d="M113.384 55.9077V60.1077H112.224V57.3581C112.053 57.4901 111.87 57.6063 111.678 57.7053C111.465 57.8067 111.244 57.8909 111.018 57.9573V57.0193C111.346 56.9253 111.655 56.7716 111.928 56.5657C112.143 56.3886 112.316 56.1657 112.434 55.9133L113.384 55.9077Z" fill="white"/>
</svg>
