<!DOCTYPE svg PUBLIC "-//W3C//DTD SVG 1.1//EN" "http://www.w3.org/Graphics/SVG/1.1/DTD/svg11.dtd">
<!-- Uploaded to: SVG Repo, www.svgrepo.com, Transformed by: SVG Repo Mixer Tools -->
<svg fill="#ffffff" width="800px" height="800px" viewBox="0 0 24 24" xmlns="http://www.w3.org/2000/svg" stroke="#ffffff">
<g id="SVGRepo_bgCarrier" stroke-width="0"/>
<g id="SVGRepo_tracerCarrier" stroke-linecap="round" stroke-linejoin="round"/>
<g id="SVGRepo_iconCarrier">
<path d="M9,18.5A2.5,2.5,0,1,1,6.5,16,2.5,2.5,0,0,1,9,18.5ZM17.5,16A2.5,2.5,0,1,0,20,18.5,2.5,2.5,0,0,0,17.5,16ZM12,3H3A1,1,0,0,0,2,4V8H13V4A1,1,0,0,0,12,3ZM2,16a.986.986,0,0,0,.355.749A4.486,4.486,0,0,1,10.724,17H13V10H2ZM15,6v8.762a4.494,4.494,0,0,1,6.645,1.987A.986.986,0,0,0,22,16V10L19,6Z"/>
</g>
</svg>